<svg width="578" height="202" viewBox="0 0 578 202" fill="none" xmlns="http://www.w3.org/2000/svg">
<g opacity="0.5">
<path d="M281.08 22.8644C284.372 22.442 287.687 22.2267 291.005 22.22C295.112 22.22 299.144 22.5351 303.083 23.1411L292.015 0L281.08 22.8644ZM190 99.99L212.863 110.924C212.442 107.633 212.227 104.318 212.221 101C212.221 96.8933 212.536 92.8594 213.142 88.9224L190 99.99ZM228.548 53.0048C233.036 47.1688 238.316 41.9874 244.236 37.6104L220.594 29.5789L228.548 53.0048V53.0048ZM354.004 53.6916L363.438 29.5789L339.508 38.9436C344.962 43.2062 349.836 48.1643 354.004 53.6916V53.6916ZM339.595 162.99L361.418 170.401L353.941 148.389C349.809 153.854 344.986 158.762 339.595 162.99V162.99ZM228.548 148.995L220.592 172.421L242.549 163.101C237.311 159.003 232.607 154.264 228.548 148.995V148.995ZM281.08 179.136L292.015 202L303.083 178.859C299.144 179.465 295.112 179.78 291.005 179.78C287.687 179.773 284.372 179.558 281.08 179.136V179.136Z" fill="#CAA40B"/>
<path d="M281.08 22.8644C284.372 22.442 287.687 22.2267 291.005 22.22C295.112 22.22 299.144 22.5351 303.083 23.1411L292.015 0L281.08 22.8644ZM190 99.99L212.863 110.924C212.442 107.633 212.227 104.318 212.221 101C212.221 96.8933 212.536 92.8594 213.142 88.9224L190 99.99ZM228.548 53.0048C233.036 47.1688 238.316 41.9874 244.236 37.6104L220.594 29.5789L228.548 53.0048V53.0048ZM354.004 53.6916L363.438 29.5789L339.508 38.9436C344.962 43.2062 349.836 48.1643 354.004 53.6916V53.6916ZM339.595 162.99L361.418 170.401L353.941 148.389C349.809 153.854 344.986 158.762 339.595 162.99V162.99ZM228.548 148.995L220.592 172.421L242.549 163.101C237.311 159.003 232.607 154.264 228.548 148.995V148.995ZM281.08 179.136L292.015 202L303.083 178.859C299.144 179.465 295.112 179.78 291.005 179.78C287.687 179.773 284.372 179.558 281.08 179.136V179.136Z" fill="#CAA40B"/>
<path d="M256.873 14.7945L255.989 30.4273C260.193 28.3386 264.576 26.6335 269.087 25.3328L256.873 14.7945V14.7945ZM216.34 75.8692C217.74 71.6909 219.491 67.6385 221.574 63.7552L206.153 64.7188L216.34 75.8692V75.8692ZM328.5 14.1683L315.456 26.1085C320.377 27.7142 325.125 29.8037 329.633 32.3463L328.5 14.1683V14.1683ZM207.294 137.633L221.136 137.39C219.362 133.991 217.841 130.467 216.583 126.846L207.294 137.633ZM258.384 187.888L270.273 177.005C265.856 175.804 261.554 174.218 257.415 172.266L258.384 187.888V187.888ZM328.977 184.822L329.841 169.535C325.972 171.74 321.921 173.61 317.733 175.126L328.977 184.822Z" fill="#F1C411"/>
<path d="M256.873 14.7945L255.989 30.4273C260.193 28.3386 264.576 26.6335 269.087 25.3328L256.873 14.7945V14.7945ZM216.34 75.8692C217.74 71.6909 219.491 67.6385 221.574 63.7552L206.153 64.7188L216.34 75.8692V75.8692ZM328.5 14.1683L315.456 26.1085C320.377 27.7142 325.125 29.8037 329.633 32.3463L328.5 14.1683V14.1683ZM207.294 137.633L221.136 137.39C219.362 133.991 217.841 130.467 216.583 126.846L207.294 137.633ZM258.384 187.888L270.273 177.005C265.856 175.804 261.554 174.218 257.415 172.266L258.384 187.888V187.888ZM328.977 184.822L329.841 169.535C325.972 171.74 321.921 173.61 317.733 175.126L328.977 184.822Z" fill="#F1C411"/>
<path d="M291.005 28.28C331.169 28.28 363.729 60.8363 363.729 101C363.729 141.162 331.169 173.72 291.005 173.72C250.839 173.72 218.281 141.162 218.281 101C218.281 60.8363 250.839 28.28 291.005 28.28Z" fill="#F6D759"/>
<path d="M299.085 165.64C258.922 165.64 226.362 133.082 226.362 92.92C226.362 74.8955 232.933 58.4164 243.793 45.7106C228.184 59.0486 218.281 78.8628 218.281 101C218.281 141.162 250.841 173.72 291.005 173.72C313.172 173.72 332.985 163.788 346.33 148.157C333.617 159.039 317.133 165.64 299.085 165.64Z" fill="#DDC14E"/>
<path d="M346.33 148.157C333.617 159.041 317.133 165.64 299.083 165.64C272.788 165.64 249.759 151.684 236.983 130.777L228.903 138.857C241.678 159.764 264.707 173.72 291.003 173.72C313.168 173.72 332.985 163.788 346.33 148.157Z" fill="#C5AE47"/>
<path d="M284.945 82.82L194.04 173.72H363.729V82.82H284.945Z" fill="#DCC050"/>
<path d="M383.089 100.412C384.265 97.1196 384.94 93.5866 384.94 89.89C384.94 72.5968 370.922 58.58 353.628 58.58C340.451 58.58 329.193 66.7287 324.575 78.2548C319.671 73.407 313.051 70.6917 306.156 70.7C291.651 70.7 279.894 82.4564 279.894 96.96C279.894 103.145 282.044 108.821 285.628 113.31C277.82 114.449 271.814 121.156 271.814 129.28C271.814 133.566 273.517 137.676 276.547 140.707C279.578 143.737 283.689 145.44 287.975 145.44H364.739C379.243 145.44 391 133.684 391 119.18C391 111.821 387.966 105.179 383.089 100.412Z" fill="white"/>
<path d="M383.089 100.412C384.265 97.1196 384.94 93.5866 384.94 89.89C384.94 72.5968 370.922 58.58 353.628 58.58C340.451 58.58 329.193 66.7287 324.575 78.2548C319.671 73.407 313.051 70.6917 306.156 70.7C291.651 70.7 279.894 82.4564 279.894 96.96C279.894 103.145 282.044 108.821 285.628 113.31C277.82 114.449 271.814 121.156 271.814 129.28C271.814 133.566 273.517 137.676 276.547 140.707C279.578 143.737 283.689 145.44 287.975 145.44H364.739C379.243 145.44 391 133.684 391 119.18C391 111.821 387.966 105.179 383.089 100.412Z" fill="white"/>
</g>
<path d="M11.272 63.368C13.32 63.368 15.304 63.336 17.224 63.272C19.144 63.144 21.032 63.048 22.888 62.984C23.016 63.24 23.048 63.752 22.984 64.52C22.984 65.224 22.888 65.608 22.696 65.672C22.44 65.672 21.832 65.768 20.872 65.96C19.976 66.088 19.112 66.376 18.28 66.824C17.448 67.208 17.032 67.848 17.032 68.744C17.032 69.768 17.608 71.88 18.76 75.08C19.272 76.488 19.944 78.376 20.776 80.744C21.672 83.048 22.632 85.608 23.656 88.424C24.68 91.24 25.704 94.056 26.728 96.872C27.816 99.688 28.776 102.28 29.608 104.648C30.504 107.016 31.208 108.968 31.72 110.504C32.296 111.976 32.616 112.776 32.68 112.904C32.808 112.648 33.224 111.688 33.928 110.024C34.632 108.296 35.496 106.12 36.52 103.496C37.608 100.872 38.792 97.992 40.072 94.856C41.352 91.656 42.632 88.424 43.912 85.16C45.256 81.896 46.504 78.824 47.656 75.944C48.104 74.856 48.488 73.704 48.808 72.488C49.128 71.272 49.288 70.248 49.288 69.416C49.288 68.392 48.84 67.624 47.944 67.112C47.112 66.6 46.184 66.248 45.16 66.056C44.2 65.864 43.528 65.768 43.144 65.768C42.888 65.64 42.76 65.224 42.76 64.52C42.76 63.752 42.888 63.24 43.144 62.984C44.872 63.048 46.504 63.144 48.04 63.272C49.576 63.336 51.208 63.368 52.936 63.368C54.408 63.368 55.56 63.368 56.392 63.368C57.288 63.304 58.152 63.24 58.984 63.176C59.816 63.112 60.84 63.048 62.056 62.984C62.184 63.24 62.216 63.752 62.152 64.52C62.088 65.288 61.992 65.672 61.864 65.672C61.48 65.672 60.584 65.832 59.176 66.152C57.832 66.472 56.744 67.112 55.912 68.072C55.336 68.712 54.568 70.024 53.608 72.008C52.712 73.928 51.912 75.784 51.208 77.576C49.48 81.864 47.88 85.8 46.408 89.384C45 92.968 43.592 96.424 42.184 99.752C40.84 103.08 39.432 106.536 37.96 110.12C36.488 113.704 34.824 117.672 32.968 122.024C32.456 123.24 31.88 124.072 31.24 124.52C30.664 124.968 30.056 125.192 29.416 125.192C29.224 125.192 29.064 125 28.936 124.616C28.808 124.168 28.68 123.848 28.552 123.656C26.44 118.088 24.456 112.904 22.6 108.104C20.808 103.24 18.952 98.312 17.032 93.32C15.176 88.328 13.064 82.824 10.696 76.808C9.992 74.952 9.288 73.288 8.584 71.816C7.944 70.344 7.208 69 6.376 67.784C6.056 67.272 5.48 66.856 4.648 66.536C3.816 66.216 2.984 65.992 2.152 65.864C1.384 65.736 0.808003 65.672 0.424003 65.672C0.360003 65.672 0.328003 65.256 0.328003 64.424C0.328003 63.528 0.360003 63.048 0.424003 62.984C2.6 63.048 4.392 63.144 5.8 63.272C7.272 63.336 9.096 63.368 11.272 63.368Z" fill="#333333"/>
<path d="M63.6828 69.512C64.8348 69.512 65.8268 69.96 66.6588 70.856C67.5548 71.752 68.0028 72.776 68.0028 73.928C68.0028 75.08 67.5548 76.072 66.6588 76.904C65.7628 77.736 64.7388 78.152 63.5868 78.152C62.4348 78.152 61.4108 77.736 60.5148 76.904C59.6188 76.008 59.1708 74.984 59.1708 73.832C59.1708 72.68 59.6188 71.688 60.5148 70.856C61.4748 69.96 62.5308 69.512 63.6828 69.512ZM80.8668 69.512C82.0188 69.512 83.0108 69.96 83.8428 70.856C84.7388 71.752 85.1868 72.776 85.1868 73.928C85.1868 75.08 84.7388 76.072 83.8428 76.904C82.9468 77.736 81.9228 78.152 80.7708 78.152C79.6188 78.152 78.5948 77.736 77.6988 76.904C76.8028 76.008 76.3548 74.984 76.3548 73.832C76.3548 72.68 76.8028 71.688 77.6988 70.856C78.6588 69.96 79.7148 69.512 80.8668 69.512ZM75.7787 84.104C77.5707 84.104 79.2348 84.68 80.7708 85.832C82.3708 86.984 83.6507 88.52 84.6107 90.44C85.5707 92.36 86.0508 94.536 86.0508 96.968V116.264C86.0508 117.48 86.2747 118.536 86.7227 119.432C87.1707 120.264 87.9067 120.68 88.9307 120.68C89.8267 120.68 90.5308 120.488 91.0428 120.104C91.5548 119.72 91.8748 119.496 92.0028 119.432C92.1308 119.432 92.2267 119.528 92.2907 119.72C92.3547 119.912 92.3867 120.072 92.3867 120.2C92.3867 120.904 92.2268 121.512 91.9068 122.024C91.5228 122.344 90.8828 122.792 89.9868 123.368C89.1548 123.944 88.2588 124.456 87.2988 124.904C86.4028 125.352 85.6028 125.576 84.8988 125.576C83.5548 125.576 82.3388 124.904 81.2508 123.56C80.2268 122.216 79.5548 120.84 79.2348 119.432C78.9788 119.688 78.3708 120.168 77.4108 120.872C76.5148 121.576 75.4588 122.312 74.2428 123.08C73.0268 123.784 71.8107 124.424 70.5947 125C69.4427 125.512 68.4508 125.768 67.6188 125.768C64.5468 125.768 61.9548 124.744 59.8428 122.696C57.7308 120.584 56.6748 118.024 56.6748 115.016C56.6748 113.096 57.1868 111.464 58.2108 110.12C59.2988 108.712 60.3548 107.816 61.3788 107.432C63.1708 106.792 65.1547 106.12 67.3307 105.416C69.5708 104.648 71.6508 103.912 73.5708 103.208C75.4908 102.504 76.8988 101.96 77.7948 101.576C78.3068 101.384 78.6268 101.16 78.7548 100.904C78.8828 100.584 78.9467 100.008 78.9467 99.176V96.68C78.9467 95.272 78.5947 93.896 77.8907 92.552C77.1867 91.144 76.2267 89.992 75.0107 89.096C73.7947 88.136 72.4188 87.656 70.8828 87.656C69.2828 87.656 68.0988 88.168 67.3307 89.192C66.5627 90.216 66.0188 91.656 65.6988 93.512C65.1228 96.52 63.6508 98.024 61.2828 98.024C60.2588 98.024 59.4588 97.608 58.8828 96.776C58.3708 95.944 58.1148 95.048 58.1148 94.088C58.1148 93.896 58.1788 93.544 58.3068 93.032C58.4348 92.456 58.5948 92.04 58.7868 91.784C59.7468 90.888 61.1228 89.832 62.9148 88.616C64.7068 87.4 66.7228 86.344 68.9628 85.448C71.2668 84.552 73.5387 84.104 75.7787 84.104ZM70.7868 120.68C71.8748 120.68 73.0588 120.424 74.3388 119.912C75.6188 119.4 76.7068 118.856 77.6028 118.28C78.4988 117.64 78.9467 117.16 78.9467 116.84V104.072C77.7307 104.456 76.1948 104.936 74.3388 105.512C72.4828 106.088 71.1067 106.536 70.2107 106.856C68.5467 107.496 67.1707 108.424 66.0827 109.64C64.9947 110.856 64.4508 112.36 64.4508 114.152C64.4508 115.88 65.0587 117.416 66.2747 118.76C67.4907 120.04 68.9948 120.68 70.7868 120.68Z" fill="#333333"/>
<path d="M119.547 83.912C120.571 83.912 121.787 84.04 123.195 84.296C124.603 84.488 125.531 84.68 125.979 84.872C126.299 84.872 126.459 84.232 126.459 82.952V72.68C126.459 71.976 126.427 71.144 126.363 70.184C126.363 69.16 126.235 68.36 125.979 67.784C125.723 67.08 125.019 66.632 123.867 66.44C122.715 66.248 121.499 66.152 120.219 66.152C120.155 66.152 120.091 65.768 120.027 65C120.027 64.168 120.123 63.72 120.315 63.656C122.683 63.4 124.987 62.952 127.227 62.312C129.531 61.608 131.675 60.808 133.659 59.912C133.915 59.912 134.139 60.104 134.331 60.488C134.587 60.808 134.715 61.128 134.715 61.448C134.715 61.448 134.523 62.152 134.139 63.56C133.819 64.968 133.659 66.984 133.659 69.608V109.736C133.659 111.528 133.691 113.352 133.755 115.208C133.883 117 134.075 118.248 134.331 118.952C134.651 119.656 135.387 120.104 136.539 120.296C137.755 120.424 138.683 120.52 139.323 120.584C139.579 120.584 139.739 120.584 139.803 120.584C139.931 120.648 139.995 120.84 139.995 121.16C140.059 121.416 140.091 121.608 140.091 121.736C140.091 121.8 140.027 122.056 139.899 122.504C139.835 122.888 139.675 123.08 139.419 123.08C137.819 123.144 136.059 123.4 134.139 123.848C132.283 124.296 130.683 124.712 129.339 125.096C127.995 125.544 127.291 125.768 127.227 125.768C126.971 125.768 126.779 125.544 126.651 125.096C126.523 124.648 126.459 124.264 126.459 123.944V120.68C126.459 120.104 126.363 119.912 126.171 120.104C125.723 120.616 124.763 121.32 123.291 122.216C121.883 123.112 120.315 123.944 118.587 124.712C116.859 125.416 115.227 125.768 113.691 125.768C110.875 125.768 108.187 124.904 105.627 123.176C103.131 121.384 101.083 118.984 99.4833 115.976C97.9473 112.904 97.1793 109.48 97.1793 105.704C97.1793 102.632 97.9153 99.784 99.3873 97.16C100.923 94.472 102.843 92.168 105.147 90.248C107.515 88.264 109.979 86.728 112.539 85.64C115.099 84.488 117.435 83.912 119.547 83.912ZM116.475 87.848C114.107 87.848 112.059 88.616 110.331 90.152C108.667 91.624 107.355 93.544 106.395 95.912C105.499 98.28 105.051 100.776 105.051 103.4C105.051 106.344 105.563 109.064 106.587 111.56C107.611 114.056 109.115 116.072 111.099 117.608C113.083 119.144 115.483 119.912 118.299 119.912C120.411 119.912 122.299 119.496 123.963 118.664C125.627 117.768 126.459 116.936 126.459 116.168V92.456C126.459 91.368 125.435 90.344 123.387 89.384C121.403 88.36 119.099 87.848 116.475 87.848Z" fill="#333333"/>
<path d="M152.087 101.768C152.023 105.736 152.695 109.064 154.103 111.752C155.511 114.44 157.399 116.456 159.767 117.8C162.135 119.08 164.695 119.72 167.447 119.72C169.175 119.72 170.743 119.432 172.151 118.856C173.559 118.216 174.743 117.512 175.703 116.744C176.663 115.912 177.335 115.272 177.719 114.824C177.783 114.824 177.911 114.952 178.103 115.208C178.359 115.4 178.487 115.688 178.487 116.072C178.487 116.584 178.295 117.16 177.911 117.8C177.335 118.696 176.439 119.784 175.223 121.064C174.007 122.28 172.471 123.368 170.615 124.328C168.759 125.288 166.615 125.768 164.183 125.768C160.535 125.768 157.303 124.904 154.487 123.176C151.671 121.448 149.463 119.112 147.863 116.168C146.263 113.224 145.463 109.928 145.463 106.28C145.463 103.144 146.007 100.232 147.095 97.544C148.247 94.792 149.719 92.424 151.511 90.44C153.367 88.392 155.383 86.792 157.559 85.64C159.735 84.488 161.847 83.912 163.895 83.912C166.711 83.912 169.015 84.392 170.807 85.352C172.663 86.312 174.103 87.496 175.127 88.904C176.215 90.312 176.951 91.72 177.335 93.128C177.783 94.536 178.007 95.72 178.007 96.68C178.007 98.024 177.847 99.08 177.527 99.848C177.207 100.616 176.599 101.032 175.703 101.096C175.127 101.16 173.975 101.224 172.247 101.288C170.583 101.288 168.663 101.32 166.487 101.384C164.311 101.448 162.167 101.512 160.055 101.576C157.943 101.64 156.151 101.704 154.679 101.768C153.207 101.768 152.343 101.768 152.087 101.768ZM152.567 98.312H167.831C168.407 98.312 168.887 98.152 169.271 97.832C169.719 97.512 169.975 96.936 170.039 96.104C170.103 95.336 169.879 94.248 169.367 92.84C168.855 91.432 168.023 90.152 166.871 89C165.783 87.848 164.279 87.272 162.359 87.272C160.375 87.272 158.743 87.848 157.463 89C156.183 90.088 155.159 91.368 154.391 92.84C153.687 94.248 153.175 95.528 152.855 96.68C152.599 97.768 152.503 98.312 152.567 98.312Z" fill="#333333"/>
<path d="M210.354 84.008C211.57 84.008 212.722 84.296 213.81 84.872C214.898 85.384 215.665 86.024 216.113 86.792C216.241 87.048 216.338 87.4 216.402 87.848C216.466 88.296 216.497 88.776 216.497 89.288C216.497 91.016 216.081 92.264 215.249 93.032C214.481 93.8 213.841 94.184 213.329 94.184C212.689 94.184 212.082 93.96 211.506 93.512C210.93 93.064 210.386 92.68 209.874 92.36C209.426 92.04 208.946 91.784 208.434 91.592C207.986 91.336 207.313 91.208 206.417 91.208C205.073 91.208 203.826 91.784 202.674 92.936C201.586 94.024 200.69 95.24 199.986 96.584C199.282 97.928 198.93 98.952 198.93 99.656V114.152C198.93 115.56 198.93 116.872 198.93 118.088C198.994 119.304 199.153 120.296 199.41 121.064C199.538 121.384 200.177 121.672 201.329 121.928C202.481 122.184 203.698 122.376 204.978 122.504C206.258 122.568 207.089 122.6 207.473 122.6C207.665 122.856 207.762 123.304 207.762 123.944C207.826 124.584 207.729 125.032 207.473 125.288C205.553 125.16 203.602 125.064 201.618 125C199.634 124.872 197.713 124.808 195.857 124.808C194.065 124.808 192.338 124.872 190.674 125C189.01 125.064 187.218 125.16 185.298 125.288C185.042 125.032 184.913 124.584 184.913 123.944C184.977 123.304 185.106 122.856 185.298 122.6C185.682 122.6 186.321 122.568 187.217 122.504C188.177 122.376 189.074 122.184 189.906 121.928C190.738 121.672 191.185 121.384 191.249 121.064C191.505 120.296 191.633 119.304 191.633 118.088C191.697 116.872 191.73 115.56 191.73 114.152V96.68C191.73 96.04 191.697 95.208 191.633 94.184C191.633 93.16 191.505 92.36 191.249 91.784C191.057 91.208 190.514 90.824 189.618 90.632C188.722 90.376 187.826 90.248 186.93 90.248C186.034 90.184 185.458 90.152 185.202 90.152C185.138 90.024 185.074 89.64 185.01 89C184.946 88.36 185.01 87.912 185.202 87.656C187.634 87.336 190.001 86.856 192.305 86.216C194.609 85.576 196.69 84.744 198.546 83.72C198.802 83.72 199.025 83.912 199.217 84.296C199.473 84.68 199.602 85 199.602 85.256C199.602 85.448 199.538 86.184 199.41 87.464C199.281 88.744 199.153 90.056 199.025 91.4C198.961 92.68 198.93 93.512 198.93 93.896C198.93 94.088 198.961 94.184 199.025 94.184C199.153 94.184 199.25 94.152 199.314 94.088C199.954 92.744 200.849 91.304 202.001 89.768C203.217 88.168 204.562 86.824 206.034 85.736C207.506 84.584 208.946 84.008 210.354 84.008Z" fill="#333333"/>
<path d="M243.11 83.912C244.134 83.912 245.35 84.04 246.758 84.296C248.166 84.488 249.094 84.68 249.542 84.872C249.862 84.872 250.022 84.232 250.022 82.952V72.68C250.022 71.976 249.99 71.144 249.926 70.184C249.926 69.16 249.798 68.36 249.542 67.784C249.286 67.08 248.582 66.632 247.43 66.44C246.278 66.248 245.062 66.152 243.782 66.152C243.718 66.152 243.654 65.768 243.59 65C243.59 64.168 243.686 63.72 243.878 63.656C246.246 63.4 248.55 62.952 250.79 62.312C253.094 61.608 255.238 60.808 257.222 59.912C257.478 59.912 257.702 60.104 257.894 60.488C258.15 60.808 258.278 61.128 258.278 61.448C258.278 61.448 258.086 62.152 257.702 63.56C257.382 64.968 257.222 66.984 257.222 69.608V109.736C257.222 111.528 257.254 113.352 257.318 115.208C257.446 117 257.638 118.248 257.894 118.952C258.214 119.656 258.95 120.104 260.102 120.296C261.318 120.424 262.246 120.52 262.886 120.584C263.142 120.584 263.302 120.584 263.366 120.584C263.494 120.648 263.558 120.84 263.558 121.16C263.622 121.416 263.654 121.608 263.654 121.736C263.654 121.8 263.59 122.056 263.462 122.504C263.398 122.888 263.238 123.08 262.982 123.08C261.382 123.144 259.622 123.4 257.702 123.848C255.846 124.296 254.246 124.712 252.902 125.096C251.558 125.544 250.854 125.768 250.79 125.768C250.534 125.768 250.342 125.544 250.214 125.096C250.086 124.648 250.022 124.264 250.022 123.944V120.68C250.022 120.104 249.926 119.912 249.734 120.104C249.286 120.616 248.326 121.32 246.854 122.216C245.446 123.112 243.878 123.944 242.15 124.712C240.422 125.416 238.79 125.768 237.254 125.768C234.438 125.768 231.75 124.904 229.19 123.176C226.694 121.384 224.646 118.984 223.046 115.976C221.51 112.904 220.742 109.48 220.742 105.704C220.742 102.632 221.478 99.784 222.95 97.16C224.486 94.472 226.406 92.168 228.71 90.248C231.078 88.264 233.542 86.728 236.102 85.64C238.662 84.488 240.998 83.912 243.11 83.912ZM240.038 87.848C237.67 87.848 235.622 88.616 233.894 90.152C232.23 91.624 230.918 93.544 229.958 95.912C229.062 98.28 228.614 100.776 228.614 103.4C228.614 106.344 229.126 109.064 230.15 111.56C231.174 114.056 232.678 116.072 234.662 117.608C236.646 119.144 239.046 119.912 241.862 119.912C243.974 119.912 245.862 119.496 247.526 118.664C249.19 117.768 250.022 116.936 250.022 116.168V92.456C250.022 91.368 248.998 90.344 246.95 89.384C244.966 88.36 242.662 87.848 240.038 87.848Z" fill="#333333"/>
<path d="M287.841 84.104C289.633 84.104 291.297 84.68 292.833 85.832C294.433 86.984 295.713 88.52 296.673 90.44C297.633 92.36 298.113 94.536 298.113 96.968V116.264C298.113 117.48 298.337 118.536 298.785 119.432C299.233 120.264 299.969 120.68 300.993 120.68C301.889 120.68 302.593 120.488 303.105 120.104C303.617 119.72 303.937 119.496 304.065 119.432C304.193 119.432 304.289 119.528 304.353 119.72C304.417 119.912 304.449 120.072 304.449 120.2C304.449 120.904 304.289 121.512 303.969 122.024C303.585 122.344 302.945 122.792 302.049 123.368C301.217 123.944 300.321 124.456 299.361 124.904C298.465 125.352 297.665 125.576 296.961 125.576C295.617 125.576 294.401 124.904 293.313 123.56C292.289 122.216 291.617 120.84 291.297 119.432C291.041 119.688 290.433 120.168 289.473 120.872C288.577 121.576 287.521 122.312 286.305 123.08C285.089 123.784 283.873 124.424 282.657 125C281.505 125.512 280.513 125.768 279.681 125.768C276.609 125.768 274.017 124.744 271.905 122.696C269.793 120.584 268.737 118.024 268.737 115.016C268.737 113.096 269.249 111.464 270.273 110.12C271.361 108.712 272.417 107.816 273.441 107.432C275.233 106.792 277.217 106.12 279.393 105.416C281.633 104.648 283.713 103.912 285.633 103.208C287.553 102.504 288.961 101.96 289.857 101.576C290.369 101.384 290.689 101.16 290.817 100.904C290.945 100.584 291.009 100.008 291.009 99.176V96.68C291.009 95.272 290.657 93.896 289.953 92.552C289.249 91.144 288.289 89.992 287.073 89.096C285.857 88.136 284.481 87.656 282.945 87.656C281.345 87.656 280.161 88.168 279.393 89.192C278.625 90.216 278.081 91.656 277.761 93.512C277.185 96.52 275.713 98.024 273.345 98.024C272.321 98.024 271.521 97.608 270.945 96.776C270.433 95.944 270.177 95.048 270.177 94.088C270.177 93.896 270.241 93.544 270.369 93.032C270.497 92.456 270.657 92.04 270.849 91.784C271.809 90.888 273.185 89.832 274.977 88.616C276.769 87.4 278.785 86.344 281.025 85.448C283.329 84.552 285.601 84.104 287.841 84.104ZM282.849 120.68C283.937 120.68 285.121 120.424 286.401 119.912C287.681 119.4 288.769 118.856 289.665 118.28C290.561 117.64 291.009 117.16 291.009 116.84V104.072C289.793 104.456 288.257 104.936 286.401 105.512C284.545 106.088 283.169 106.536 282.273 106.856C280.609 107.496 279.233 108.424 278.145 109.64C277.057 110.856 276.513 112.36 276.513 114.152C276.513 115.88 277.121 117.416 278.337 118.76C279.553 120.04 281.057 120.68 282.849 120.68Z" fill="#333333"/>
<path d="M333.818 118.76C336.314 118.76 338.65 119.208 340.826 120.104C343.066 121 344.858 122.184 346.202 123.656C347.61 125.128 348.314 126.76 348.314 128.552C348.314 130.472 347.642 132.456 346.298 134.504C345.018 136.552 343.258 138.472 341.018 140.264C338.778 142.056 336.186 143.496 333.242 144.584C330.298 145.736 327.194 146.312 323.93 146.312C321.434 146.312 318.938 145.896 316.442 145.064C313.946 144.232 311.866 142.952 310.202 141.224C308.538 139.56 307.706 137.448 307.706 134.888C307.706 133.48 308.314 132.136 309.53 130.856C310.746 129.576 312.154 128.424 313.754 127.4C315.354 126.376 316.666 125.608 317.69 125.096C316.602 124.712 315.45 124.136 314.234 123.368C313.082 122.6 312.09 121.64 311.258 120.488C310.426 119.272 310.01 117.896 310.01 116.36C310.586 115.72 311.386 114.984 312.41 114.152C313.498 113.256 314.554 112.424 315.578 111.656C316.666 110.888 317.498 110.344 318.074 110.024C315.77 108.744 313.882 107.016 312.41 104.84C311.002 102.6 310.298 100.328 310.298 98.024C310.298 95.528 310.97 93.224 312.314 91.112C313.722 88.936 315.61 87.176 317.978 85.832C320.41 84.488 323.13 83.816 326.138 83.816C328.186 83.816 329.914 84.104 331.322 84.68C332.73 85.192 333.85 85.608 334.682 85.928C335.578 86.248 336.026 86.408 336.026 86.408C336.09 86.408 336.346 86.472 336.794 86.6L346.874 85.16C347.45 85.352 347.738 85.672 347.738 86.12C347.738 86.504 347.514 87.176 347.066 88.136C346.618 89.032 346.138 89.64 345.626 89.96C344.858 89.896 343.994 89.864 343.034 89.864C342.074 89.8 341.242 89.736 340.538 89.672C339.834 89.608 339.482 89.576 339.482 89.576C339.226 89.576 339.098 89.672 339.098 89.864C339.354 90.12 339.834 91.08 340.538 92.744C341.306 94.344 341.69 96.232 341.69 98.408C341.69 100.584 340.986 102.728 339.578 104.84C338.234 106.952 336.346 108.712 333.914 110.12C331.546 111.464 328.858 112.136 325.85 112.136C325.018 112.136 324.058 112.04 322.97 111.848C321.882 111.656 321.082 111.464 320.57 111.272C319.738 111.72 318.938 112.328 318.17 113.096C317.466 113.864 317.114 114.632 317.114 115.4C317.114 115.848 317.594 116.52 318.554 117.416C319.514 118.312 320.922 118.76 322.778 118.76H333.818ZM329.498 125.384C328.922 125.384 327.962 125.384 326.618 125.384C325.338 125.448 324.09 125.512 322.874 125.576C321.722 125.64 321.018 125.736 320.762 125.864C319.738 126.504 318.554 127.4 317.21 128.552C315.866 129.704 315.194 130.888 315.194 132.104C315.194 135.112 316.282 137.608 318.458 139.592C320.634 141.64 323.706 142.664 327.674 142.664C329.85 142.664 332.026 142.184 334.202 141.224C336.378 140.264 338.202 139.016 339.674 137.48C341.146 135.944 341.882 134.312 341.882 132.584C341.882 131.688 341.466 130.664 340.634 129.512C339.802 128.424 338.49 127.464 336.698 126.632C334.906 125.8 332.506 125.384 329.498 125.384ZM325.754 86.696C323.962 86.696 322.458 87.24 321.242 88.328C320.026 89.416 319.098 90.792 318.458 92.456C317.818 94.12 317.498 95.848 317.498 97.64C317.498 99.56 317.85 101.416 318.554 103.208C319.258 105 320.282 106.472 321.626 107.624C322.97 108.776 324.602 109.352 326.522 109.352C328.25 109.352 329.69 108.84 330.842 107.816C332.058 106.728 332.954 105.384 333.53 103.784C334.17 102.12 334.49 100.424 334.49 98.696C334.49 96.712 334.17 94.824 333.53 93.032C332.89 91.176 331.93 89.672 330.65 88.52C329.37 87.304 327.738 86.696 325.754 86.696Z" fill="#333333"/>
<path d="M369.057 125.672C368.353 125.672 367.265 125.48 365.793 125.096C364.385 124.776 363.169 124.488 362.145 124.232C361.953 124.168 361.697 124.104 361.377 124.04C360.545 123.784 359.681 123.592 358.785 123.464C357.889 123.272 356.993 123.336 356.097 123.656C355.841 123.656 355.553 123.4 355.233 122.888C354.977 122.312 354.849 121.896 354.849 121.64C355.297 120.68 355.585 119.528 355.713 118.184C355.905 116.84 356.001 115.688 356.001 114.728V72.68C356.001 72.04 355.969 71.208 355.905 70.184C355.905 69.16 355.777 68.36 355.521 67.784C355.265 67.08 354.561 66.632 353.409 66.44C352.257 66.248 351.041 66.152 349.761 66.152C349.697 66.152 349.633 65.768 349.569 65C349.569 64.168 349.665 63.72 349.857 63.656C352.225 63.4 354.529 62.952 356.769 62.312C359.073 61.608 361.217 60.808 363.201 59.912C363.457 59.912 363.681 60.104 363.873 60.488C364.129 60.808 364.257 61.128 364.257 61.448C364.257 61.448 364.065 62.152 363.681 63.56C363.361 64.968 363.201 66.984 363.201 69.608V88.04C363.201 88.296 363.233 88.584 363.297 88.904C363.361 89.224 363.521 89.256 363.777 89C364.289 88.616 365.217 88.04 366.561 87.272C367.905 86.44 369.377 85.672 370.977 84.968C372.577 84.264 373.953 83.912 375.105 83.912C377.921 83.912 380.385 84.52 382.497 85.736C384.673 86.888 386.465 88.424 387.873 90.344C389.345 92.2 390.433 94.28 391.137 96.584C391.905 98.824 392.289 101 392.289 103.112C392.289 107.208 391.265 110.984 389.217 114.44C387.233 117.832 384.481 120.552 380.961 122.6C377.505 124.648 373.537 125.672 369.057 125.672ZM370.593 89.48C369.377 89.48 368.033 89.8 366.561 90.44C365.089 91.016 364.129 91.528 363.681 91.976C363.361 92.296 363.201 92.648 363.201 93.032V115.784C363.201 117.128 363.649 118.312 364.545 119.336C365.441 120.36 366.561 121.16 367.905 121.736C369.249 122.248 370.593 122.504 371.937 122.504C374.177 122.504 376.225 121.736 378.081 120.2C380.001 118.6 381.537 116.616 382.689 114.248C383.841 111.816 384.417 109.352 384.417 106.856C384.417 101.416 383.137 97.16 380.577 94.088C378.081 91.016 374.753 89.48 370.593 89.48Z" fill="#333333"/>
<path d="M419.777 83.816C423.937 83.816 427.489 84.712 430.433 86.504C433.441 88.296 435.745 90.728 437.345 93.8C439.009 96.872 439.841 100.36 439.841 104.264C439.841 108.296 438.977 111.944 437.249 115.208C435.521 118.408 433.153 120.968 430.145 122.888C427.137 124.744 423.745 125.672 419.969 125.672C415.873 125.672 412.289 124.776 409.217 122.984C406.209 121.128 403.873 118.664 402.209 115.592C400.609 112.456 399.809 108.936 399.809 105.032C399.809 101 400.673 97.384 402.401 94.184C404.193 90.984 406.593 88.456 409.601 86.6C412.609 84.744 416.001 83.816 419.777 83.816ZM418.721 86.984C416.097 86.984 413.985 87.784 412.385 89.384C410.785 90.92 409.633 92.936 408.929 95.432C408.225 97.864 407.873 100.424 407.873 103.112C407.873 106.12 408.353 109.128 409.313 112.136C410.337 115.144 411.809 117.64 413.729 119.624C415.713 121.608 418.113 122.6 420.929 122.6C423.617 122.6 425.729 121.832 427.265 120.296C428.865 118.696 430.017 116.648 430.721 114.152C431.425 111.656 431.777 109.096 431.777 106.472C431.777 103.4 431.265 100.392 430.241 97.448C429.217 94.44 427.745 91.944 425.825 89.96C423.905 87.976 421.537 86.984 418.721 86.984Z" fill="#333333"/>
<path d="M459.24 114.152C459.24 115.56 459.24 116.872 459.24 118.088C459.304 119.304 459.464 120.296 459.72 121.064C459.848 121.384 460.296 121.672 461.064 121.928C461.896 122.184 462.759 122.376 463.655 122.504C464.615 122.568 465.288 122.6 465.672 122.6C465.864 122.856 465.96 123.304 465.96 123.944C466.024 124.584 465.928 125.032 465.672 125.288C463.752 125.16 462.055 125.064 460.583 125C459.111 124.872 457.447 124.808 455.591 124.808C453.799 124.808 452.167 124.872 450.695 125C449.287 125.064 447.623 125.16 445.703 125.288C445.447 125.032 445.319 124.584 445.319 123.944C445.383 123.304 445.511 122.856 445.703 122.6C446.087 122.6 446.728 122.568 447.624 122.504C448.52 122.376 449.384 122.184 450.216 121.928C451.048 121.672 451.496 121.384 451.56 121.064C451.816 120.296 451.944 119.304 451.944 118.088C452.008 116.872 452.039 115.56 452.039 114.152V72.68C452.039 71.976 452.008 71.144 451.944 70.184C451.944 69.16 451.816 68.36 451.56 67.784C451.304 67.08 450.6 66.632 449.448 66.44C448.36 66.248 447.176 66.152 445.896 66.152C445.832 66.152 445.767 65.768 445.703 65C445.703 64.168 445.799 63.72 445.991 63.656C448.359 63.4 450.664 62.952 452.904 62.312C455.144 61.608 457.256 60.808 459.24 59.912C459.496 59.912 459.719 60.104 459.911 60.488C460.167 60.808 460.296 61.128 460.296 61.448C460.296 61.448 460.104 62.152 459.72 63.56C459.4 64.968 459.24 66.984 459.24 69.608V103.016C460.072 102.696 461.16 101.992 462.504 100.904C463.912 99.816 465.416 98.6 467.016 97.256C469.448 95.208 471.464 93.512 473.064 92.168C474.728 90.824 475.56 89.928 475.56 89.48C475.56 88.968 475.239 88.616 474.599 88.424C474.023 88.232 473.384 88.104 472.68 88.04C471.976 87.912 471.463 87.848 471.143 87.848C470.887 87.528 470.759 87.016 470.759 86.312C470.823 85.608 470.984 85.224 471.24 85.16C472.584 85.288 474.055 85.416 475.655 85.544C477.255 85.608 478.791 85.64 480.263 85.64C483.527 85.64 486.28 85.48 488.52 85.16C488.712 85.416 488.775 85.896 488.711 86.6C488.711 87.24 488.648 87.656 488.52 87.848C487.88 87.848 486.76 88.04 485.16 88.424C483.624 88.808 482.343 89.352 481.319 90.056C481.063 90.248 480.391 90.728 479.303 91.496C478.215 92.264 476.903 93.224 475.367 94.376C473.895 95.528 472.328 96.744 470.664 98.024C469.064 99.304 467.559 100.52 466.151 101.672C468.519 104.168 470.856 106.728 473.16 109.352C475.464 111.912 477.511 114.184 479.303 116.168C481.095 118.088 482.344 119.368 483.048 120.008C484.264 121.032 485.672 121.736 487.272 122.12C488.936 122.504 490.375 122.664 491.591 122.6C491.719 122.728 491.784 123.08 491.784 123.656C491.848 124.168 491.816 124.552 491.688 124.808C491.368 124.936 490.6 125.064 489.384 125.192C488.168 125.32 486.919 125.384 485.639 125.384C482.887 125.384 480.456 124.904 478.344 123.944C476.232 122.92 474.824 122.024 474.12 121.256C474.12 121.256 473.672 120.808 472.776 119.912C471.944 118.952 470.823 117.736 469.415 116.264C468.007 114.728 466.536 113.128 465 111.464C463.464 109.8 462.024 108.232 460.68 106.76C460.488 106.504 460.199 106.312 459.815 106.184C459.431 105.992 459.24 105.896 459.24 105.896V114.152Z" fill="#333333"/>
<path d="M498.399 101.768C498.335 105.736 499.007 109.064 500.415 111.752C501.823 114.44 503.711 116.456 506.079 117.8C508.447 119.08 511.007 119.72 513.759 119.72C515.487 119.72 517.055 119.432 518.463 118.856C519.871 118.216 521.055 117.512 522.015 116.744C522.975 115.912 523.647 115.272 524.031 114.824C524.095 114.824 524.223 114.952 524.415 115.208C524.671 115.4 524.799 115.688 524.799 116.072C524.799 116.584 524.607 117.16 524.223 117.8C523.647 118.696 522.751 119.784 521.535 121.064C520.319 122.28 518.783 123.368 516.927 124.328C515.071 125.288 512.927 125.768 510.495 125.768C506.847 125.768 503.615 124.904 500.799 123.176C497.983 121.448 495.775 119.112 494.175 116.168C492.575 113.224 491.775 109.928 491.775 106.28C491.775 103.144 492.319 100.232 493.407 97.544C494.559 94.792 496.031 92.424 497.823 90.44C499.679 88.392 501.695 86.792 503.871 85.64C506.047 84.488 508.159 83.912 510.207 83.912C513.023 83.912 515.327 84.392 517.119 85.352C518.975 86.312 520.415 87.496 521.439 88.904C522.527 90.312 523.263 91.72 523.647 93.128C524.095 94.536 524.319 95.72 524.319 96.68C524.319 98.024 524.159 99.08 523.839 99.848C523.519 100.616 522.911 101.032 522.015 101.096C521.439 101.16 520.287 101.224 518.559 101.288C516.895 101.288 514.975 101.32 512.799 101.384C510.623 101.448 508.479 101.512 506.367 101.576C504.255 101.64 502.463 101.704 500.991 101.768C499.519 101.768 498.655 101.768 498.399 101.768ZM498.879 98.312H514.143C514.719 98.312 515.199 98.152 515.583 97.832C516.031 97.512 516.287 96.936 516.351 96.104C516.415 95.336 516.191 94.248 515.679 92.84C515.167 91.432 514.335 90.152 513.183 89C512.095 87.848 510.591 87.272 508.671 87.272C506.687 87.272 505.055 87.848 503.775 89C502.495 90.088 501.471 91.368 500.703 92.84C499.999 94.248 499.487 95.528 499.167 96.68C498.911 97.768 498.815 98.312 498.879 98.312Z" fill="#333333"/>
<path d="M558.49 83.912C561.882 83.912 564.442 84.616 566.17 86.024C567.898 87.432 569.05 89.608 569.626 92.552C570.266 95.496 570.586 99.24 570.586 103.784V114.152C570.586 115.56 570.586 116.872 570.586 118.088C570.65 119.304 570.81 120.296 571.066 121.064C571.194 121.384 571.642 121.672 572.41 121.928C573.242 122.184 574.106 122.376 575.002 122.504C575.898 122.568 576.538 122.6 576.922 122.6C577.114 122.856 577.21 123.304 577.21 123.944C577.274 124.584 577.178 125.032 576.922 125.288C575.002 125.16 573.306 125.064 571.834 125C570.426 124.872 568.794 124.808 566.938 124.808C565.146 124.808 563.514 124.872 562.042 125C560.57 125.064 558.874 125.16 556.954 125.288C556.698 125.032 556.57 124.584 556.57 123.944C556.634 123.304 556.762 122.856 556.954 122.6C557.338 122.6 557.978 122.568 558.874 122.504C559.834 122.376 560.73 122.184 561.562 121.928C562.394 121.672 562.842 121.384 562.906 121.064C563.162 120.296 563.29 119.304 563.29 118.088C563.354 116.872 563.386 115.56 563.386 114.152V104.744C563.386 100.84 563.13 97.8 562.618 95.624C562.106 93.384 561.178 91.784 559.834 90.824C558.49 89.864 556.602 89.384 554.17 89.384C553.018 89.384 551.738 89.768 550.33 90.536C548.986 91.24 547.802 92.008 546.778 92.84C545.754 93.672 545.242 94.248 545.242 94.568V114.152C545.242 115.56 545.242 116.872 545.242 118.088C545.306 119.304 545.466 120.296 545.722 121.064C545.85 121.384 546.298 121.672 547.066 121.928C547.898 122.184 548.762 122.376 549.658 122.504C550.554 122.568 551.194 122.6 551.578 122.6C551.77 122.856 551.866 123.304 551.866 123.944C551.93 124.584 551.834 125.032 551.578 125.288C549.658 125.16 547.962 125.064 546.49 125C545.082 124.872 543.45 124.808 541.594 124.808C539.802 124.808 538.17 124.872 536.698 125C535.226 125.064 533.53 125.16 531.61 125.288C531.354 125.032 531.226 124.584 531.226 123.944C531.29 123.304 531.418 122.856 531.61 122.6C531.994 122.6 532.634 122.568 533.53 122.504C534.49 122.376 535.386 122.184 536.218 121.928C537.05 121.672 537.498 121.384 537.562 121.064C537.818 120.296 537.946 119.304 537.946 118.088C538.01 116.872 538.042 115.56 538.042 114.152V97.064C538.042 96.424 538.01 95.528 537.946 94.376C537.946 93.224 537.818 92.36 537.562 91.784C537.37 91.208 536.826 90.824 535.93 90.632C535.034 90.376 534.138 90.248 533.242 90.248C532.346 90.184 531.77 90.152 531.514 90.152C531.45 90.024 531.386 89.64 531.322 89C531.258 88.36 531.322 87.912 531.514 87.656C533.946 87.336 536.314 86.856 538.618 86.216C540.922 85.576 543.002 84.744 544.858 83.72C545.114 83.72 545.338 83.912 545.53 84.296C545.786 84.68 545.914 85 545.914 85.256C545.914 85.448 545.85 85.96 545.722 86.792C545.658 87.56 545.562 88.328 545.434 89.096C545.37 89.864 545.338 90.376 545.338 90.632C545.338 90.888 545.402 91.016 545.53 91.016C545.594 91.016 545.69 90.952 545.818 90.824C546.458 90.12 547.482 89.224 548.89 88.136C550.362 87.048 551.962 86.088 553.69 85.256C555.418 84.36 557.018 83.912 558.49 83.912Z" fill="#333333"/>
</svg>
