<svg width="21" height="17" viewBox="0 0 21 17" fill="none" xmlns="http://www.w3.org/2000/svg">
<path d="M0.2756 3.49132C0.0687964 3.23288 -0.0262364 2.9046 0.0110974 2.57764C0.0484313 2.25068 0.215124 1.95138 0.475049 1.7446C0.601017 1.64124 1.79771 0.742042 3.68723 0.276938C5.57675 -0.188165 8.21158 -0.270851 11.2033 1.68259C15.4232 4.45254 18.9189 1.77561 18.9504 1.7446C19.0799 1.6428 19.2286 1.56713 19.3879 1.52191C19.5472 1.47668 19.7139 1.46279 19.8787 1.48103C20.0434 1.49926 20.2029 1.54927 20.348 1.62819C20.4931 1.7071 20.621 1.81339 20.7244 1.94098C20.8278 2.06856 20.9046 2.21495 20.9506 2.37178C20.9965 2.52861 21.0106 2.69281 20.9921 2.85501C20.9736 3.01721 20.9228 3.17422 20.8426 3.3171C20.7625 3.45997 20.6545 3.5859 20.525 3.6877C20.399 3.79106 19.2023 4.69026 17.3128 5.15536C16.6026 5.33339 15.8727 5.42366 15.1398 5.42409C13.5967 5.42409 11.7492 5.03133 9.79668 3.74971C5.57675 0.979761 2.08114 3.65669 2.04965 3.6877C1.78716 3.89132 1.45375 3.98489 1.12168 3.94813C0.789601 3.91137 0.485615 3.74724 0.2756 3.49132ZM18.9504 7.53256C18.9189 7.56356 15.4232 10.2405 11.2033 7.47054C8.21158 5.51711 5.46128 5.62046 3.68723 6.0649C1.91318 6.50933 0.601017 7.4292 0.475049 7.53256C0.345468 7.63435 0.237519 7.76028 0.157366 7.90316C0.0772141 8.04603 0.0264277 8.20305 0.00790713 8.36525C-0.0106135 8.52744 0.00349447 8.69165 0.0494253 8.84848C0.0953561 9.00531 0.17221 9.15169 0.2756 9.27928C0.37899 9.40686 0.50689 9.51315 0.651998 9.59207C0.797107 9.67099 0.956582 9.72099 1.12132 9.73923C1.28605 9.75746 1.45282 9.74357 1.61211 9.69835C1.77139 9.65312 1.92007 9.57745 2.04965 9.47566C2.08114 9.44465 5.57675 6.76772 9.79668 9.53767C11.7492 10.8193 13.5967 11.212 15.1398 11.212C15.8727 11.2116 16.6026 11.1213 17.3128 10.9433C19.2023 10.4782 20.399 9.57901 20.525 9.47566C20.7867 9.27007 20.9547 8.97054 20.9921 8.64297C21.0295 8.31539 20.9332 7.9866 20.7244 7.72893C20.5156 7.47126 20.2114 7.30581 19.8787 7.26899C19.546 7.23216 19.2121 7.32697 18.9504 7.53256ZM18.9504 13.3205C18.9189 13.3515 15.4232 16.0285 11.2033 13.2585C8.21158 11.3051 5.46128 11.4084 3.68723 11.8529C1.91318 12.2973 0.601017 13.2172 0.475049 13.3205C0.213347 13.5261 0.0453113 13.8256 0.00790733 14.1532C-0.0294967 14.4808 0.0667953 14.8096 0.2756 15.0672C0.484405 15.3249 0.788619 15.4904 1.12132 15.5272C1.45402 15.564 1.78795 15.4692 2.04965 15.2636C2.08114 15.2326 5.57675 12.5557 9.79668 15.3256C11.7492 16.6072 13.5967 17 15.1398 17C15.8727 16.9996 16.6026 16.9093 17.3128 16.7313C19.2023 16.2662 20.399 15.367 20.525 15.2636C20.7867 15.058 20.9547 14.7585 20.9921 14.4309C21.0295 14.1033 20.9332 13.7746 20.7244 13.5169C20.5156 13.2592 20.2114 13.0938 19.8787 13.0569C19.546 13.0201 19.2121 13.1149 18.9504 13.3205Z" fill="#CBCBCB"/>
</svg>
