<svg width="30" height="28" viewBox="0 0 30 28" fill="none" xmlns="http://www.w3.org/2000/svg">
<path d="M7.5 25.7143H22.5C22.7677 25.7138 23.026 25.8136 23.2238 25.9939C23.4217 26.1743 23.5448 26.4223 23.569 26.6889C23.5932 26.9555 23.5167 27.2216 23.3545 27.4346C23.1924 27.6477 22.9563 27.7923 22.6929 27.84L22.5 27.8571H7.5C7.23226 27.8576 6.97403 27.7579 6.77618 27.5775C6.57832 27.3971 6.45517 27.1492 6.43098 26.8825C6.40679 26.6159 6.48331 26.3498 6.64547 26.1368C6.80763 25.9237 7.04368 25.7791 7.30714 25.7314L7.5 25.7143V25.7143ZM3.22286 21.4286H26.7771C27.3729 21.4286 27.8571 21.9086 27.8571 22.5C27.8571 23.025 27.4757 23.4643 26.9721 23.5543L26.7793 23.5714H3.22071C3.07945 23.572 2.93946 23.5447 2.80873 23.4912C2.678 23.4376 2.5591 23.3589 2.45881 23.2594C2.35852 23.1599 2.27882 23.0416 2.22424 22.9113C2.16966 22.781 2.14128 22.6413 2.14071 22.5C2.14071 21.975 2.52214 21.5357 3.02571 21.4457L3.21857 21.4286H3.22286ZM15 0C20.2821 0 23.2779 3.37286 23.7129 7.44429H23.8457C27.2443 7.44429 30 10.095 30 13.3629C30 16.6329 27.2443 19.2836 23.8457 19.2836H6.15429C2.75571 19.2857 0 16.635 0 13.3629C0 10.2129 2.55429 7.64143 5.77929 7.455L6.28714 7.44429C6.72643 3.345 9.71786 0 15 0V0ZM15 2.14286C11.4643 2.14286 8.385 4.86428 8.385 8.625C8.385 9.22071 7.84071 9.68786 7.21714 9.68786H6.03857C3.88714 9.68786 2.14286 11.3571 2.14286 13.4164C2.14286 15.4736 3.88714 17.1429 6.03857 17.1429H23.9614C26.1129 17.1429 27.8571 15.4736 27.8571 13.4143C27.8571 11.3571 26.1129 9.68786 23.9614 9.68786H22.7829C22.1614 9.68786 21.615 9.22071 21.615 8.625C21.615 4.81714 18.5336 2.14286 15 2.14286V2.14286Z" fill="#333333"/>
</svg>
