<svg width="30" height="27" viewBox="0 0 30 27" fill="none" xmlns="http://www.w3.org/2000/svg">
<path d="M15.0008 23.2115C15.4429 23.2115 15.8668 23.386 16.1794 23.6967C16.492 24.0074 16.6676 24.4288 16.6676 24.8682C16.6676 25.3076 16.492 25.729 16.1794 26.0397C15.8668 26.3503 15.4429 26.5249 15.0008 26.5249C14.5588 26.5249 14.1348 26.3503 13.8223 26.0397C13.5097 25.729 13.3341 25.3076 13.3341 24.8682C13.3341 24.4288 13.5097 24.0074 13.8223 23.6967C14.1348 23.386 14.5588 23.2115 15.0008 23.2115ZM9.16718 21.5547C9.60923 21.5547 10.0332 21.7293 10.3458 22.04C10.6583 22.3507 10.8339 22.7721 10.8339 23.2115C10.8339 23.6508 10.6583 24.0722 10.3458 24.3829C10.0332 24.6936 9.60923 24.8682 9.16718 24.8682C8.72512 24.8682 8.30118 24.6936 7.9886 24.3829C7.67602 24.0722 7.50042 23.6508 7.50042 23.2115C7.50042 22.7721 7.67602 22.3507 7.9886 22.04C8.30118 21.7293 8.72512 21.5547 9.16718 21.5547ZM20.8345 21.5547C21.2765 21.5547 21.7005 21.7293 22.0131 22.04C22.3256 22.3507 22.5012 22.7721 22.5012 23.2115C22.5012 23.6508 22.3256 24.0722 22.0131 24.3829C21.7005 24.6936 21.2765 24.8682 20.8345 24.8682C20.3924 24.8682 19.9685 24.6936 19.6559 24.3829C19.3433 24.0722 19.1677 23.6508 19.1677 23.2115C19.1677 22.7721 19.3433 22.3507 19.6559 22.04C19.9685 21.7293 20.3924 21.5547 20.8345 21.5547ZM15 0C20.2811 0 23.2771 3.47414 23.713 7.67061H23.8463C27.2448 7.67061 30 10.4017 30 13.7715C30 17.1412 27.2448 19.8723 23.8463 19.8723H6.15368C2.75515 19.8723 0 17.1412 0 13.7715C0 10.4017 2.75515 7.67061 6.15368 7.67061H6.28702C6.72537 3.4468 9.71887 0 15 0ZM15 2.06676C11.449 2.06676 8.3538 4.92294 8.3538 8.86759C8.3538 9.493 7.8071 9.98339 7.1804 9.98339H5.997C3.83521 9.98339 2.08262 11.7345 2.08262 13.8941C2.08262 16.0544 3.83521 17.8056 5.997 17.8056H24.003C26.1648 17.8056 27.9174 16.0544 27.9174 13.8941C27.9174 11.7345 26.1648 9.98422 24.003 9.98422H22.8196C22.1929 9.98422 21.6462 9.493 21.6462 8.86759C21.6462 4.87241 18.551 2.06676 15 2.06676Z" fill="#333333"/>
</svg>
