<svg width="30" height="26" viewBox="0 0 30 26" fill="none" xmlns="http://www.w3.org/2000/svg">
<path d="M9.91553 19.0489C9.8267 18.7903 9.64967 18.571 9.41533 18.4292C9.15021 18.2692 8.83232 18.2206 8.53143 18.2942C8.23054 18.3677 7.97125 18.5573 7.81048 18.8214L5.20381 23.6913L5.11122 23.8819C5.0069 24.1541 5.00849 24.4553 5.11568 24.7265C5.22288 24.9976 5.42791 25.2189 5.69043 25.3469C5.95295 25.4749 6.25395 25.5003 6.53419 25.4181C6.81443 25.3359 7.05361 25.152 7.20467 24.9026L9.809 20.0325L9.90138 19.8442C9.99935 19.589 10.0044 19.3075 9.91553 19.0489Z" fill="#66AAFF"/>
<path d="M15.9829 19.0489C15.8941 18.7903 15.7171 18.571 15.4827 18.4292C15.2176 18.2692 14.8997 18.2206 14.5988 18.2942C14.2979 18.3677 14.0386 18.5573 13.8779 18.8214L11.2712 23.6913L11.1786 23.8819C11.0743 24.1541 11.0759 24.4553 11.1831 24.7265C11.2903 24.9976 11.4953 25.2189 11.7578 25.3469C12.0203 25.4749 12.3213 25.5003 12.6016 25.4181C12.8818 25.3359 13.121 25.152 13.2721 24.9026L15.8764 20.0325L15.9688 19.8442C16.0667 19.589 16.0717 19.3075 15.9829 19.0489Z" fill="#66AAFF"/>
<path d="M22.0503 19.0489C21.9615 18.7903 21.7844 18.571 21.5501 18.4292C21.285 18.2692 20.9671 18.2206 20.6662 18.2942C20.3653 18.3677 20.106 18.5573 19.9452 18.8214L17.3386 23.6913L17.246 23.8819C17.1417 24.1541 17.1433 24.4553 17.2504 24.7265C17.3576 24.9976 17.5627 25.2189 17.8252 25.3469C18.0877 25.4749 18.3887 25.5003 18.669 25.4181C18.9492 25.3359 19.1884 25.152 19.3394 24.9026L21.9438 20.0325L22.0361 19.8442C22.1341 19.589 22.1391 19.3075 22.0503 19.0489Z" fill="#66AAFF"/>
<path d="M8.26125 2.43238C10.1353 0.870245 12.5255 0.00750106 15 0C20.0438 0 24.2306 3.625 24.6863 8.29944C27.6713 8.70725 30 11.1233 30 14.0886C30 17.3438 27.1913 19.9375 23.7881 19.9375H7.08937C3.2025 19.9375 0 16.9759 0 13.2639C0 10.0684 2.37375 7.42219 5.51625 6.75156C5.78437 5.18737 6.825 3.62863 8.26125 2.43238V2.43238Z" fill="#DDDDDD"/>
</svg>
