<svg width="30" height="29" viewBox="0 0 30 29" fill="none" xmlns="http://www.w3.org/2000/svg">
<path d="M3.91281 13.643C3.91442 13.8747 3.83471 14.0996 3.6876 14.2786C3.5405 14.4575 3.33536 14.5791 3.10804 14.622L2.93022 14.6367L1.25945 14.6458C1.01249 14.6483 0.773699 14.5579 0.590307 14.3924C0.406916 14.227 0.292279 13.9985 0.26907 13.7522C0.245861 13.5059 0.315769 13.2598 0.464968 13.0624C0.614167 12.865 0.831792 12.7308 1.0748 12.6864L1.25076 12.6709L2.92339 12.6625C3.18467 12.6614 3.43556 12.7643 3.62096 12.9485C3.80635 13.1327 3.91109 13.3831 3.91217 13.6449L3.91281 13.643ZM4.81719 5.5406L4.95184 5.65306L6.13901 6.83C6.31408 7.00335 6.41795 7.23615 6.43019 7.48258C6.44243 7.72902 6.36214 7.97124 6.20514 8.16158C6.04813 8.35193 5.82577 8.47661 5.58182 8.51109C5.33787 8.54557 5.09 8.48735 4.88698 8.34789L4.75046 8.2348L3.56329 7.05785C3.38822 6.8845 3.28435 6.65171 3.27211 6.40527C3.25988 6.15884 3.34016 5.91661 3.49717 5.72627C3.65417 5.53592 3.87653 5.41124 4.12048 5.37676C4.36443 5.34228 4.61231 5.4005 4.81532 5.53997L4.81719 5.5406ZM19.5309 5.57696C19.6949 5.73979 19.7965 5.95519 19.818 6.18559C19.8395 6.41599 19.7796 6.64675 19.6487 6.83762L19.5356 6.97453L18.3591 8.16541C18.1859 8.34102 17.9533 8.44539 17.7073 8.45799C17.4613 8.47058 17.2196 8.39048 17.0298 8.23345C16.84 8.07643 16.7159 7.85384 16.6818 7.60951C16.6477 7.36517 16.7062 7.11678 16.8456 6.91321L16.9594 6.77443L18.1377 5.58419C18.3219 5.39836 18.572 5.29323 18.8332 5.29188C19.0944 5.29052 19.3454 5.39305 19.5309 5.57696ZM12.475 3.1162L12.492 3.29308L12.4982 4.96867C12.499 5.21528 12.4076 5.4534 12.2422 5.63621C12.0767 5.81902 11.849 5.9333 11.6039 5.95659C11.3588 5.97987 11.114 5.91047 10.9176 5.76204C10.7212 5.6136 10.5874 5.39687 10.5426 5.15444L10.5274 4.97819L10.5207 3.30447C10.5209 3.05879 10.6125 2.82187 10.7776 2.63997C10.9427 2.45808 11.1695 2.34426 11.4136 2.32074C11.6578 2.29722 11.9018 2.36568 12.0981 2.51277C12.2943 2.65985 12.4287 2.87499 12.475 3.1162Z" fill="#FFCC00"/>
<circle cx="11.5545" cy="13.4556" r="5.39627" fill="#FFCC00"/>
<path d="M10.1312 12.734C11.8441 11.3063 14.0287 10.5177 16.2904 10.5109C20.9003 10.5109 24.727 13.8241 25.1435 18.0964C27.8717 18.4692 30.0002 20.6774 30.0002 23.3876C30.0002 26.3629 27.433 28.7335 24.3226 28.7335H9.06016C5.50761 28.7335 2.58057 26.0266 2.58057 22.6339C2.58057 19.7133 4.75014 17.2946 7.62234 16.6817C7.86741 15.2521 8.81852 13.8274 10.1312 12.734V12.734Z" fill="#EAEAEA"/>
</svg>
