<svg width="30" height="30" viewBox="0 0 30 30" fill="none" xmlns="http://www.w3.org/2000/svg">
<path d="M5.78911 21.8978C5.89503 21.8978 5.99662 21.9398 6.07153 22.0147C6.14643 22.0896 6.18851 22.1912 6.18851 22.2972V23.2078L6.98891 22.7493C7.08066 22.6997 7.18816 22.688 7.28845 22.7166C7.38873 22.7452 7.47384 22.812 7.52559 22.9025C7.57733 22.9931 7.5916 23.1003 7.56535 23.2012C7.5391 23.3021 7.47442 23.3888 7.38512 23.4427L6.5943 23.8948L7.38512 24.3469C7.47442 24.4008 7.5391 24.4874 7.56535 24.5884C7.5916 24.6893 7.57733 24.7965 7.52559 24.8871C7.47384 24.9776 7.38873 25.0443 7.28845 25.073C7.18816 25.1016 7.08066 25.0898 6.98891 25.0403L6.18851 24.5833V25.4924C6.18851 25.5983 6.14643 25.6999 6.07153 25.7748C5.99662 25.8497 5.89503 25.8918 5.78911 25.8918C5.68318 25.8918 5.58159 25.8497 5.50669 25.7748C5.43178 25.6999 5.3897 25.5983 5.3897 25.4924V24.5818L4.5893 25.0403C4.49755 25.0898 4.39005 25.1016 4.28976 25.073C4.18948 25.0443 4.10437 24.9776 4.05262 24.8871C4.00088 24.7965 3.98661 24.6893 4.01286 24.5884C4.03911 24.4874 4.10379 24.4008 4.19309 24.3469L4.98391 23.8948L4.19309 23.4427C4.10379 23.3888 4.03911 23.3021 4.01286 23.2012C3.98661 23.1003 4.00088 22.9931 4.05262 22.9025C4.10437 22.812 4.18948 22.7452 4.28976 22.7166C4.39005 22.688 4.49755 22.6997 4.5893 22.7493L5.3897 23.2062V22.2972C5.3897 22.1912 5.43178 22.0896 5.50669 22.0147C5.58159 21.9398 5.68318 21.8978 5.78911 21.8978ZM10.1825 25.093C10.2885 25.093 10.39 25.1351 10.465 25.21C10.5399 25.2849 10.5819 25.3865 10.5819 25.4924V26.403L11.3823 25.9445C11.4741 25.8949 11.5816 25.8832 11.6819 25.9118C11.7822 25.9405 11.8673 26.0072 11.919 26.0977C11.9708 26.1883 11.985 26.2955 11.9588 26.3964C11.9325 26.4973 11.8678 26.584 11.7785 26.6379L10.9877 27.09L11.7785 27.5421C11.8678 27.596 11.9325 27.6827 11.9588 27.7836C11.985 27.8845 11.9708 27.9917 11.919 28.0823C11.8673 28.1728 11.7822 28.2395 11.6819 28.2682C11.5816 28.2968 11.4741 28.2851 11.3823 28.2355L10.5819 27.7786V28.6876C10.5819 28.7935 10.5399 28.8951 10.465 28.97C10.39 29.0449 10.2885 29.087 10.1825 29.087C10.0766 29.087 9.97501 29.0449 9.90011 28.97C9.82521 28.8951 9.78313 28.7935 9.78313 28.6876V27.777L8.98273 28.2355C8.89098 28.2851 8.78347 28.2968 8.68319 28.2682C8.5829 28.2395 8.49779 28.1728 8.44605 28.0823C8.39431 27.9917 8.38004 27.8845 8.40628 27.7836C8.43253 27.6827 8.49722 27.596 8.58652 27.5421L9.37734 27.09L8.58652 26.6379C8.49722 26.584 8.43253 26.4973 8.40628 26.3964C8.38004 26.2955 8.39431 26.1883 8.44605 26.0977C8.49779 26.0072 8.5829 25.9405 8.68319 25.9118C8.78347 25.8832 8.89098 25.8949 8.98273 25.9445L9.78313 26.4014V25.4924C9.78313 25.3865 9.82521 25.2849 9.90011 25.21C9.97501 25.1351 10.0766 25.093 10.1825 25.093ZM18.9694 25.093C19.0753 25.093 19.1769 25.1351 19.2518 25.21C19.3267 25.2849 19.3688 25.3865 19.3688 25.4924V26.403L20.1692 25.9445C20.2609 25.8949 20.3684 25.8832 20.4687 25.9118C20.569 25.9405 20.6541 26.0072 20.7059 26.0977C20.7576 26.1883 20.7719 26.2955 20.7456 26.3964C20.7194 26.4973 20.6547 26.584 20.5654 26.6379L19.7746 27.09L20.5654 27.5421C20.6547 27.596 20.7194 27.6827 20.7456 27.7836C20.7719 27.8845 20.7576 27.9917 20.7059 28.0823C20.6541 28.1728 20.569 28.2395 20.4687 28.2682C20.3684 28.2968 20.2609 28.2851 20.1692 28.2355L19.3688 27.7786V28.6876C19.3688 28.7935 19.3267 28.8951 19.2518 28.97C19.1769 29.0449 19.0753 29.087 18.9694 29.087C18.8635 29.087 18.7619 29.0449 18.687 28.97C18.6121 28.8951 18.57 28.7935 18.57 28.6876V27.777L17.7696 28.2355C17.6778 28.2851 17.5703 28.2968 17.47 28.2682C17.3698 28.2395 17.2846 28.1728 17.2329 28.0823C17.1812 27.9917 17.1669 27.8845 17.1931 27.7836C17.2194 27.6827 17.2841 27.596 17.3734 27.5421L18.1642 27.09L17.3734 26.6379C17.2841 26.584 17.2194 26.4973 17.1931 26.3964C17.1669 26.2955 17.1812 26.1883 17.2329 26.0977C17.2846 26.0072 17.3698 25.9405 17.47 25.9118C17.5703 25.8832 17.6778 25.8949 17.7696 25.9445L18.57 26.4014V25.4924C18.57 25.3865 18.6121 25.2849 18.687 25.21C18.7619 25.1351 18.8635 25.093 18.9694 25.093ZM14.576 21.8978C14.6819 21.8978 14.7835 21.9398 14.8584 22.0147C14.9333 22.0896 14.9754 22.1912 14.9754 22.2972V23.2078L15.7758 22.7493C15.8675 22.6997 15.975 22.688 16.0753 22.7166C16.1756 22.7452 16.2607 22.812 16.3124 22.9025C16.3642 22.9931 16.3785 23.1003 16.3522 23.2012C16.326 23.3021 16.2613 23.3888 16.172 23.4427L15.3812 23.8948L16.172 24.3469C16.2613 24.4008 16.326 24.4874 16.3522 24.5884C16.3785 24.6893 16.3642 24.7965 16.3124 24.8871C16.2607 24.9776 16.1756 25.0443 16.0753 25.073C15.975 25.1016 15.8675 25.0898 15.7758 25.0403L14.9754 24.5833V25.4924C14.9754 25.5983 14.9333 25.6999 14.8584 25.7748C14.7835 25.8497 14.6819 25.8918 14.576 25.8918C14.47 25.8918 14.3684 25.8497 14.2935 25.7748C14.2186 25.6999 14.1766 25.5983 14.1766 25.4924V24.5818L13.3762 25.0403C13.2844 25.0898 13.1769 25.1016 13.0766 25.073C12.9763 25.0443 12.8912 24.9776 12.8395 24.8871C12.7877 24.7965 12.7735 24.6893 12.7997 24.5884C12.826 24.4874 12.8906 24.4008 12.9799 24.3469L13.7708 23.8948L12.9799 23.4427C12.8906 23.3888 12.826 23.3021 12.7997 23.2012C12.7735 23.1003 12.7877 22.9931 12.8395 22.9025C12.8912 22.812 12.9763 22.7452 13.0766 22.7166C13.1769 22.688 13.2844 22.6997 13.3762 22.7493L14.1766 23.2062V22.2972C14.1766 22.1912 14.2186 22.0896 14.2935 22.0147C14.3684 21.9398 14.47 21.8978 14.576 21.8978ZM23.3628 21.8978C23.4687 21.8978 23.5703 21.9398 23.6452 22.0147C23.7201 22.0896 23.7622 22.1912 23.7622 22.2972V23.2078L24.5626 22.7493C24.6544 22.6997 24.7619 22.688 24.8622 22.7166C24.9624 22.7452 25.0475 22.812 25.0993 22.9025C25.151 22.9931 25.1653 23.1003 25.1391 23.2012C25.1128 23.3021 25.0481 23.3888 24.9588 23.4427L24.168 23.8948L24.9588 24.3469C25.0481 24.4008 25.1128 24.4874 25.1391 24.5884C25.1653 24.6893 25.151 24.7965 25.0993 24.8871C25.0475 24.9776 24.9624 25.0443 24.8622 25.073C24.7619 25.1016 24.6544 25.0898 24.5626 25.0403L23.7622 24.5833V25.4924C23.7622 25.5983 23.7201 25.6999 23.6452 25.7748C23.5703 25.8497 23.4687 25.8918 23.3628 25.8918C23.2569 25.8918 23.1553 25.8497 23.0804 25.7748C23.0055 25.6999 22.9634 25.5983 22.9634 25.4924V24.5818L22.163 25.0403C22.0713 25.0898 21.9638 25.1016 21.8635 25.073C21.7632 25.0443 21.6781 24.9776 21.6263 24.8871C21.5746 24.7965 21.5603 24.6893 21.5866 24.5884C21.6128 24.4874 21.6775 24.4008 21.7668 24.3469L22.5576 23.8948L21.7668 23.4427C21.6775 23.3888 21.6128 23.3021 21.5866 23.2012C21.5603 23.1003 21.5746 22.9931 21.6263 22.9025C21.6781 22.812 21.7632 22.7452 21.8635 22.7166C21.9638 22.688 22.0713 22.6997 22.163 22.7493L22.9634 23.2062V22.2972C22.9634 22.1912 23.0055 22.0896 23.0804 22.0147C23.1553 21.9398 23.2569 21.8978 23.3628 21.8978Z" fill="#A8C5EA"/>
<path d="M8.26125 2.43238C10.1353 0.870245 12.5255 0.00750106 15 0C20.0438 0 24.2306 3.625 24.6863 8.29944C27.6713 8.70725 30 11.1233 30 14.0886C30 17.3438 27.1913 19.9375 23.7881 19.9375H7.08937C3.2025 19.9375 0 16.9759 0 13.2639C0 10.0684 2.37375 7.42219 5.51625 6.75156C5.78437 5.18737 6.825 3.62863 8.26125 2.43238V2.43238Z" fill="#DDDDDD"/>
</svg>
