<svg width="30" height="30" viewBox="0 0 30 30" fill="none" xmlns="http://www.w3.org/2000/svg">
<path d="M9.91553 19.0489C9.8267 18.7903 9.64967 18.571 9.41533 18.4292C9.15021 18.2692 8.83232 18.2206 8.53143 18.2942C8.23054 18.3677 7.97125 18.5573 7.81048 18.8214L5.20381 23.6913L5.11122 23.8819C5.0069 24.1541 5.00849 24.4553 5.11568 24.7265C5.22288 24.9976 5.42791 25.2189 5.69043 25.3469C5.95295 25.4749 6.25395 25.5003 6.53419 25.4181C6.81443 25.3359 7.05361 25.152 7.20467 24.9026L9.809 20.0325L9.90138 19.8442C9.99935 19.589 10.0044 19.3075 9.91553 19.0489Z" fill="#66AAFF"/>
<path d="M13.5362 24.3013C13.469 24.0363 13.3107 23.8031 13.0889 23.6425C12.8379 23.4611 12.5251 23.3865 12.2191 23.4349C11.9132 23.4833 11.6391 23.6509 11.4571 23.9008L9.4075 27.6838L9.29948 27.8662C9.17306 28.1288 9.14978 28.4292 9.23423 28.7082C9.31869 28.9873 9.50475 29.2248 9.75582 29.374C10.0069 29.5232 10.3048 29.5734 10.5908 29.5146C10.8769 29.4557 11.1304 29.2922 11.3016 29.0562L13.3489 25.2727L13.4565 25.0927C13.5752 24.8464 13.6034 24.5663 13.5362 24.3013Z" fill="#66AAFF"/>
<path d="M8.26125 2.43238C10.1353 0.870245 12.5255 0.00750106 15 0C20.0438 0 24.2306 3.625 24.6863 8.29944C27.6713 8.70725 30 11.1233 30 14.0886C30 17.3438 27.1913 19.9375 23.7881 19.9375H7.08937C3.2025 19.9375 0 16.9759 0 13.2639C0 10.0684 2.37375 7.42219 5.51625 6.75156C5.78437 5.18737 6.825 3.62863 8.26125 2.43238V2.43238Z" fill="#DDDDDD"/>
<path d="M21.6377 22.1354C21.6754 22.0681 21.7392 22.0191 21.8149 21.9991C21.8907 21.9792 21.9722 21.9898 22.0416 22.0288L22.638 22.3637L22.623 21.6871C22.6232 21.6107 22.6538 21.5381 22.7083 21.485C22.7628 21.4319 22.8368 21.4024 22.9146 21.4029C22.9923 21.4034 23.0676 21.4337 23.1244 21.4875C23.1811 21.5413 23.2148 21.6142 23.2183 21.6907L23.2325 22.3589L23.8105 22.0233C23.8776 21.9865 23.9574 21.9773 24.0328 21.9977C24.1083 22.0182 24.1734 22.0667 24.2143 22.1328C24.2551 22.199 24.2685 22.2775 24.2515 22.3517C24.2345 22.4259 24.1885 22.4898 24.1233 22.5298L23.5388 22.8697L24.1342 23.204C24.2035 23.243 24.2551 23.3071 24.2774 23.3821C24.2998 23.4572 24.2911 23.5372 24.2534 23.6044C24.2156 23.6716 24.1519 23.7206 24.0761 23.7406C24.0004 23.7606 23.9188 23.7499 23.8494 23.711L23.2531 23.376L23.2681 24.0526C23.2678 24.1291 23.2372 24.2016 23.1827 24.2547C23.1282 24.3078 23.0542 24.3373 22.9765 24.3368C22.8987 24.3364 22.8234 24.306 22.7667 24.2522C22.7099 24.1984 22.6762 24.1255 22.6728 24.049L22.6585 23.3809L22.0806 23.7164C22.0135 23.7533 21.9337 23.7625 21.8582 23.742C21.7827 23.7215 21.7176 23.6731 21.6768 23.6069C21.6359 23.5408 21.6225 23.4622 21.6395 23.388C21.6565 23.3139 21.7025 23.25 21.7677 23.21L22.3522 22.8701L21.7569 22.5357C21.6875 22.4968 21.636 22.4327 21.6136 22.3576C21.5913 22.2825 21.5999 22.2026 21.6377 22.1354Z" fill="#A8C5EA"/>
<path d="M18.6377 26.1354C18.6754 26.0681 18.7392 26.0191 18.8149 25.9991C18.8907 25.9792 18.9722 25.9898 19.0416 26.0288L19.638 26.3637L19.623 25.6871C19.6232 25.6107 19.6538 25.5381 19.7083 25.485C19.7628 25.4319 19.8368 25.4024 19.9146 25.4029C19.9923 25.4034 20.0676 25.4337 20.1244 25.4875C20.1811 25.5413 20.2148 25.6142 20.2183 25.6907L20.2325 26.3589L20.8105 26.0233C20.8776 25.9865 20.9574 25.9773 21.0328 25.9977C21.1083 26.0182 21.1734 26.0667 21.2143 26.1328C21.2551 26.199 21.2685 26.2775 21.2515 26.3517C21.2345 26.4259 21.1885 26.4898 21.1233 26.5298L20.5388 26.8697L21.1342 27.204C21.2035 27.243 21.2551 27.3071 21.2774 27.3821C21.2998 27.4572 21.2911 27.5372 21.2534 27.6044C21.2156 27.6716 21.1519 27.7206 21.0761 27.7406C21.0004 27.7606 20.9188 27.7499 20.8494 27.711L20.2531 27.376L20.2681 28.0526C20.2678 28.1291 20.2372 28.2016 20.1827 28.2547C20.1282 28.3078 20.0542 28.3373 19.9765 28.3368C19.8987 28.3364 19.8234 28.306 19.7667 28.2522C19.7099 28.1984 19.6762 28.1255 19.6728 28.049L19.6585 27.3809L19.0806 27.7164C19.0135 27.7533 18.9337 27.7625 18.8582 27.742C18.7827 27.7215 18.7176 27.6731 18.6768 27.6069C18.6359 27.5408 18.6225 27.4622 18.6395 27.388C18.6565 27.3139 18.7025 27.25 18.7677 27.21L19.3522 26.8701L18.7569 26.5357C18.6875 26.4968 18.636 26.4327 18.6136 26.3576C18.5913 26.2825 18.5999 26.2026 18.6377 26.1354Z" fill="#A8C5EA"/>
<path d="M15.6377 22.1354C15.6754 22.0681 15.7392 22.0191 15.8149 21.9991C15.8907 21.9792 15.9722 21.9898 16.0416 22.0288L16.638 22.3637L16.623 21.6871C16.6232 21.6107 16.6538 21.5381 16.7083 21.485C16.7628 21.4319 16.8368 21.4024 16.9146 21.4029C16.9923 21.4034 17.0676 21.4337 17.1244 21.4875C17.1811 21.5413 17.2148 21.6142 17.2183 21.6907L17.2325 22.3589L17.8105 22.0233C17.8776 21.9865 17.9574 21.9773 18.0328 21.9977C18.1083 22.0182 18.1734 22.0667 18.2143 22.1328C18.2551 22.199 18.2685 22.2775 18.2515 22.3517C18.2345 22.4259 18.1885 22.4898 18.1233 22.5298L17.5388 22.8697L18.1342 23.204C18.2035 23.243 18.2551 23.3071 18.2774 23.3821C18.2998 23.4572 18.2911 23.5372 18.2534 23.6044C18.2156 23.6716 18.1519 23.7206 18.0761 23.7406C18.0004 23.7606 17.9188 23.7499 17.8494 23.711L17.2531 23.376L17.2681 24.0526C17.2678 24.1291 17.2372 24.2016 17.1827 24.2547C17.1282 24.3078 17.0542 24.3373 16.9765 24.3368C16.8987 24.3364 16.8234 24.306 16.7667 24.2522C16.7099 24.1984 16.6762 24.1255 16.6728 24.049L16.6585 23.3809L16.0806 23.7164C16.0135 23.7533 15.9337 23.7625 15.8582 23.742C15.7827 23.7215 15.7176 23.6731 15.6768 23.6069C15.6359 23.5408 15.6225 23.4622 15.6395 23.388C15.6565 23.3139 15.7025 23.25 15.7677 23.21L16.3522 22.8701L15.7569 22.5357C15.6875 22.4968 15.636 22.4327 15.6136 22.3576C15.5913 22.2825 15.5999 22.2026 15.6377 22.1354Z" fill="#A8C5EA"/>
</svg>
