<svg width="30" height="26" viewBox="0 0 30 26" fill="none" xmlns="http://www.w3.org/2000/svg">
<path d="M10.5489 21.0219C10.6548 21.0219 10.7564 21.064 10.8313 21.1389C10.9062 21.2138 10.9483 21.3154 10.9483 21.4213V22.3319L11.7487 21.8734C11.8404 21.8239 11.9479 21.8121 12.0482 21.8407C12.1485 21.8694 12.2336 21.9361 12.2854 22.0266C12.3371 22.1172 12.3514 22.2244 12.3251 22.3253C12.2989 22.4263 12.2342 22.5129 12.1449 22.5668L11.3541 23.0189L12.1449 23.471C12.2342 23.5249 12.2989 23.6116 12.3251 23.7125C12.3514 23.8135 12.3371 23.9206 12.2854 24.0112C12.2336 24.1017 12.1485 24.1685 12.0482 24.1971C11.9479 24.2257 11.8404 24.214 11.7487 24.1644L10.9483 23.7075V24.6165C10.9483 24.7225 10.9062 24.8241 10.8313 24.899C10.7564 24.9739 10.6548 25.0159 10.5489 25.0159C10.4429 25.0159 10.3414 24.9739 10.2665 24.899C10.1915 24.8241 10.1495 24.7225 10.1495 24.6165V23.7059L9.34907 24.1644C9.25732 24.214 9.14981 24.2257 9.04953 24.1971C8.94924 24.1685 8.86413 24.1017 8.81239 24.0112C8.76065 23.9206 8.74638 23.8135 8.77262 23.7125C8.79887 23.6116 8.86356 23.5249 8.95286 23.471L9.74368 23.0189L8.95286 22.5668C8.86356 22.5129 8.79887 22.4263 8.77262 22.3253C8.74638 22.2244 8.76065 22.1172 8.81239 22.0266C8.86413 21.9361 8.94924 21.8694 9.04953 21.8407C9.14981 21.8121 9.25732 21.8239 9.34907 21.8734L10.1495 22.3304V21.4213C10.1495 21.3154 10.1915 21.2138 10.2665 21.1389C10.3414 21.064 10.4429 21.0219 10.5489 21.0219ZM19.3357 21.0219C19.4417 21.0219 19.5432 21.064 19.6181 21.1389C19.693 21.2138 19.7351 21.3154 19.7351 21.4213V22.3319L20.5355 21.8734C20.6273 21.8239 20.7348 21.8121 20.8351 21.8407C20.9354 21.8694 21.0205 21.9361 21.0722 22.0266C21.1239 22.1172 21.1382 22.2244 21.112 22.3253C21.0857 22.4263 21.021 22.5129 20.9317 22.5668L20.1409 23.0189L20.9317 23.471C21.021 23.5249 21.0857 23.6116 21.112 23.7125C21.1382 23.8135 21.1239 23.9206 21.0722 24.0112C21.0205 24.1017 20.9354 24.1685 20.8351 24.1971C20.7348 24.2257 20.6273 24.214 20.5355 24.1644L19.7351 23.7075V24.6165C19.7351 24.7225 19.693 24.8241 19.6181 24.899C19.5432 24.9739 19.4417 25.0159 19.3357 25.0159C19.2298 25.0159 19.1282 24.9739 19.0533 24.899C18.9784 24.8241 18.9363 24.7225 18.9363 24.6165V23.7059L18.1359 24.1644C18.0442 24.214 17.9367 24.2257 17.8364 24.1971C17.7361 24.1685 17.651 24.1017 17.5992 24.0112C17.5475 23.9206 17.5332 23.8135 17.5595 23.7125C17.5857 23.6116 17.6504 23.5249 17.7397 23.471L18.5305 23.0189L17.7397 22.5668C17.6504 22.5129 17.5857 22.4263 17.5595 22.3253C17.5332 22.2244 17.5475 22.1172 17.5992 22.0266C17.651 21.9361 17.7361 21.8694 17.8364 21.8407C17.9367 21.8121 18.0442 21.8239 18.1359 21.8734L18.9363 22.3304V21.4213C18.9363 21.3154 18.9784 21.2138 19.0533 21.1389C19.1282 21.064 19.2298 21.0219 19.3357 21.0219Z" fill="#333333"/>
<path d="M15 0C20.28 0 23.2779 3.37012 23.7129 7.43825H23.8457C27.2443 7.43825 30 10.0868 30 13.3542C30 16.6215 27.2443 19.2701 23.8457 19.2701H6.15429C2.75572 19.2701 0 16.6215 0 13.3542C0 10.2067 2.55429 7.63523 5.77929 7.44896L6.28714 7.43825C6.72429 3.34229 9.71786 0 15 0ZM15 2.14112C11.4643 2.14112 8.385 4.86034 8.385 8.61801C8.385 9.21324 7.84071 9.68 7.21714 9.68H6.03857C3.88714 9.68 2.14286 11.3479 2.14286 13.4055C2.14286 15.4589 3.88714 17.129 6.03857 17.129H23.9614C26.1129 17.129 27.8571 15.461 27.8571 13.4034C27.8571 11.3479 26.1129 9.68 23.9614 9.68H22.7829C22.1593 9.68 21.615 9.21324 21.615 8.61801C21.615 4.81324 18.5336 2.14112 15 2.14112Z" fill="#333333"/>
</svg>
