<svg width="30" height="27" viewBox="0 0 30 27" fill="none" xmlns="http://www.w3.org/2000/svg">
<path d="M10.7891 22.0219C10.895 22.0219 10.9966 22.064 11.0715 22.1389C11.1464 22.2138 11.1885 22.3154 11.1885 22.4213V23.3319L11.9889 22.8734C12.0807 22.8239 12.1882 22.8121 12.2884 22.8407C12.3887 22.8694 12.4738 22.9361 12.5256 23.0266C12.5773 23.1172 12.5916 23.2244 12.5654 23.3253C12.5391 23.4263 12.4744 23.5129 12.3851 23.5668L11.5943 24.0189L12.3851 24.471C12.4744 24.5249 12.5391 24.6116 12.5654 24.7125C12.5916 24.8135 12.5773 24.9206 12.5256 25.0112C12.4738 25.1017 12.3887 25.1685 12.2884 25.1971C12.1882 25.2257 12.0807 25.214 11.9889 25.1644L11.1885 24.7075V25.6165C11.1885 25.7225 11.1464 25.8241 11.0715 25.899C10.9966 25.9739 10.895 26.0159 10.7891 26.0159C10.6832 26.0159 10.5816 25.9739 10.5067 25.899C10.4318 25.8241 10.3897 25.7225 10.3897 25.6165V24.7059L9.5893 25.1644C9.49755 25.214 9.39005 25.2257 9.28976 25.1971C9.18948 25.1685 9.10437 25.1017 9.05263 25.0112C9.00088 24.9206 8.98661 24.8135 9.01286 24.7125C9.03911 24.6116 9.10379 24.5249 9.19309 24.471L9.98391 24.0189L9.19309 23.5668C9.10379 23.5129 9.03911 23.4263 9.01286 23.3253C8.98661 23.2244 9.00088 23.1172 9.05263 23.0266C9.10437 22.9361 9.18948 22.8694 9.28976 22.8407C9.39005 22.8121 9.49755 22.8239 9.5893 22.8734L10.3897 23.3304V22.4213C10.3897 22.3154 10.4318 22.2138 10.5067 22.1389C10.5816 22.064 10.6832 22.0219 10.7891 22.0219ZM19.576 22.0219C19.6819 22.0219 19.7835 22.064 19.8584 22.1389C19.9333 22.2138 19.9754 22.3154 19.9754 22.4213V23.3319L20.7758 22.8734C20.8675 22.8239 20.975 22.8121 21.0753 22.8407C21.1756 22.8694 21.2607 22.9361 21.3124 23.0266C21.3642 23.1172 21.3785 23.2244 21.3522 23.3253C21.326 23.4263 21.2613 23.5129 21.172 23.5668L20.3812 24.0189L21.172 24.471C21.2613 24.5249 21.326 24.6116 21.3522 24.7125C21.3785 24.8135 21.3642 24.9206 21.3124 25.0112C21.2607 25.1017 21.1756 25.1685 21.0753 25.1971C20.975 25.2257 20.8675 25.214 20.7758 25.1644L19.9754 24.7075V25.6165C19.9754 25.7225 19.9333 25.8241 19.8584 25.899C19.7835 25.9739 19.6819 26.0159 19.576 26.0159C19.47 26.0159 19.3684 25.9739 19.2935 25.899C19.2186 25.8241 19.1766 25.7225 19.1766 25.6165V24.7059L18.3762 25.1644C18.2844 25.214 18.1769 25.2257 18.0766 25.1971C17.9763 25.1685 17.8912 25.1017 17.8395 25.0112C17.7877 24.9206 17.7735 24.8135 17.7997 24.7125C17.826 24.6116 17.8906 24.5249 17.9799 24.471L18.7708 24.0189L17.9799 23.5668C17.8906 23.5129 17.826 23.4263 17.7997 23.3253C17.7735 23.2244 17.7877 23.1172 17.8395 23.0266C17.8912 22.9361 17.9763 22.8694 18.0766 22.8407C18.1769 22.8121 18.2844 22.8239 18.3762 22.8734L19.1766 23.3304V22.4213C19.1766 22.3154 19.2186 22.2138 19.2935 22.1389C19.3684 22.064 19.47 22.0219 19.576 22.0219Z" fill="#A8C5EA"/>
<path d="M8.26125 2.43238C10.1353 0.870245 12.5255 0.00750106 15 0C20.0438 0 24.2306 3.625 24.6863 8.29944C27.6713 8.70725 30 11.1233 30 14.0886C30 17.3438 27.1913 19.9375 23.7881 19.9375H7.08937C3.2025 19.9375 0 16.9759 0 13.2639C0 10.0684 2.37375 7.42219 5.51625 6.75156C5.78437 5.18737 6.825 3.62863 8.26125 2.43238V2.43238Z" fill="#DDDDDD"/>
</svg>
