<svg width="34" height="35" viewBox="0 0 34 35" fill="none" xmlns="http://www.w3.org/2000/svg">
<path d="M7.31927 17.885C7.32127 18.1722 7.22243 18.4512 7.04002 18.6731C6.85761 18.895 6.60323 19.0457 6.32137 19.0989L6.10086 19.1172L4.02913 19.1284C3.72289 19.1315 3.42679 19.0194 3.19939 18.8143C2.97198 18.6091 2.82983 18.3258 2.80105 18.0204C2.77228 17.715 2.85896 17.4098 3.04397 17.165C3.22897 16.9203 3.49883 16.7539 3.80016 16.6987L4.01835 16.6796L6.0924 16.6692C6.41639 16.6678 6.72749 16.7954 6.95737 17.0238C7.18726 17.2521 7.31714 17.5627 7.31848 17.8873L7.31927 17.885ZM8.4407 7.83802L8.60767 7.97747L10.0798 9.43688C10.2968 9.65183 10.4256 9.94049 10.4408 10.2461C10.456 10.5516 10.3564 10.852 10.1617 11.088C9.96706 11.3241 9.69133 11.4787 9.38884 11.5214C9.08634 11.5642 8.77898 11.492 8.52724 11.319L8.35796 11.1788L6.88587 9.71941C6.66879 9.50446 6.53999 9.21579 6.52481 8.91022C6.50964 8.60464 6.60919 8.30428 6.80388 8.06825C6.99857 7.83223 7.27429 7.67762 7.57678 7.63487C7.87928 7.59212 8.18664 7.66431 8.43838 7.83724L8.4407 7.83802ZM26.6857 7.88312C26.889 8.08501 27.015 8.35212 27.0417 8.63781C27.0683 8.9235 26.994 9.20965 26.8317 9.44632L26.6915 9.61609L25.2326 11.0928C25.0178 11.3105 24.7295 11.44 24.4244 11.4556C24.1193 11.4712 23.8196 11.3719 23.5843 11.1771C23.349 10.9824 23.195 10.7064 23.1527 10.4035C23.1105 10.1005 23.1829 9.79248 23.3559 9.54006L23.4969 9.36797L24.9581 7.89207C25.1864 7.66165 25.4966 7.53129 25.8205 7.52961C26.1444 7.52793 26.4556 7.65507 26.6857 7.88312ZM17.9364 4.83178L17.9575 5.05112L17.9651 7.12883C17.9661 7.43463 17.8528 7.7299 17.6476 7.95658C17.4424 8.18327 17.1601 8.32497 16.8562 8.35385C16.5522 8.38272 16.2487 8.29667 16.0051 8.11261C15.7616 7.92855 15.5957 7.6598 15.5402 7.35918L15.5214 7.14064L15.513 5.06524C15.5132 4.76059 15.6268 4.46681 15.8316 4.24127C16.0363 4.01572 16.3175 3.87458 16.6203 3.84542C16.923 3.81625 17.2256 3.90115 17.4689 4.08353C17.7123 4.26591 17.8789 4.53269 17.9364 4.83178Z" fill="#FFCC00"/>
<path d="M26.6807 17.6861C26.6787 17.3988 26.7776 17.1199 26.96 16.898C27.1424 16.6761 27.3968 16.5254 27.6786 16.4722L27.8991 16.4538L29.9709 16.4426C30.2771 16.4395 30.5732 16.5516 30.8006 16.7568C31.028 16.962 31.1702 17.2453 31.1989 17.5506C31.2277 17.856 31.141 18.1613 30.956 18.406C30.771 18.6508 30.5012 18.8172 30.1998 18.8723L29.9817 18.8914L27.9076 18.9019C27.5836 18.9032 27.2725 18.7757 27.0426 18.5473C26.8127 18.3189 26.6829 18.0083 26.6815 17.6838L26.6807 17.6861ZM25.5593 27.733L25.3923 27.5936L23.9202 26.1342C23.7032 25.9192 23.5744 25.6306 23.5592 25.325C23.544 25.0194 23.6436 24.719 23.8383 24.483C24.0329 24.247 24.3087 24.0924 24.6112 24.0496C24.9137 24.0069 25.221 24.0791 25.4728 24.252L25.642 24.3922L27.1141 25.8516C27.3312 26.0666 27.46 26.3553 27.4752 26.6608C27.4904 26.9664 27.3908 27.2668 27.1961 27.5028C27.0014 27.7388 26.7257 27.8934 26.4232 27.9362C26.1207 27.9789 25.8134 27.9067 25.5616 27.7338L25.5593 27.733ZM7.31434 27.6879C7.11103 27.486 6.98503 27.2189 6.95835 26.9332C6.93166 26.6475 7.00597 26.3614 7.16831 26.1247L7.30853 25.955L8.76735 24.4783C8.98222 24.2605 9.27055 24.1311 9.5756 24.1155C9.88066 24.0999 10.1804 24.1992 10.4157 24.3939C10.651 24.5886 10.805 24.8646 10.8473 25.1676C10.8895 25.4706 10.8171 25.7786 10.6441 26.031L10.5031 26.2031L9.04194 27.679C8.81358 27.9094 8.50341 28.0398 8.17951 28.0414C7.8556 28.0431 7.54445 27.916 7.31434 27.6879ZM16.0636 30.7393L16.0425 30.5199L16.0349 28.4422C16.0339 28.1364 16.1472 27.8411 16.3524 27.6145C16.5576 27.3878 16.8399 27.2461 17.1438 27.2172C17.4478 27.1883 17.7513 27.2744 17.9949 27.4584C18.2384 27.6425 18.4043 27.9112 18.4598 28.2119L18.4786 28.4304L18.487 30.5058C18.4868 30.8105 18.3732 31.1042 18.1684 31.3298C17.9637 31.5553 17.6825 31.6965 17.3797 31.7256C17.077 31.7548 16.7744 31.6699 16.5311 31.4875C16.2877 31.3051 16.1211 31.0384 16.0636 30.7393Z" fill="#FFCC00"/>
<circle cx="17.0003" cy="17.958" r="6.89192" fill="#FFCC00"/>
</svg>
