<svg width="37" height="37" viewBox="0 0 37 37" fill="none" xmlns="http://www.w3.org/2000/svg">
<path d="M7.96498 18.4099C7.96716 18.7225 7.85959 19.026 7.66109 19.2675C7.46258 19.509 7.18576 19.673 6.87903 19.7309L6.63907 19.7508L4.38454 19.763C4.05129 19.7664 3.72906 19.6444 3.4816 19.4212C3.23413 19.1979 3.07944 18.8896 3.04812 18.5573C3.0168 18.2249 3.11113 17.8927 3.31246 17.6264C3.51379 17.3601 3.80746 17.179 4.13538 17.119L4.37281 17.0982L6.62986 17.0868C6.98243 17.0854 7.32098 17.2241 7.57115 17.4727C7.82132 17.7212 7.96266 18.0592 7.96412 18.4124L7.96498 18.4099ZM9.18535 7.47648L9.36705 7.62824L10.969 9.2164C11.2053 9.45032 11.3454 9.76445 11.3619 10.097C11.3784 10.4295 11.2701 10.7564 11.0582 11.0132C10.8464 11.2701 10.5463 11.4383 10.2171 11.4849C9.88796 11.5314 9.55348 11.4528 9.27953 11.2646L9.09531 11.112L7.49334 9.52386C7.2571 9.28995 7.11694 8.97581 7.10043 8.64327C7.08391 8.31074 7.19225 7.98388 7.40411 7.72703C7.61598 7.47017 7.91603 7.30193 8.24521 7.2554C8.5744 7.20888 8.90888 7.28744 9.18283 7.47563L9.18535 7.47648ZM29.0401 7.52555C29.2613 7.74527 29.3984 8.03593 29.4275 8.34683C29.4565 8.65774 29.3757 8.96913 29.199 9.22668L29.0464 9.41143L27.4589 11.0184C27.225 11.2554 26.9113 11.3962 26.5793 11.4132C26.2473 11.4302 25.9212 11.3221 25.6651 11.1102C25.409 10.8983 25.2414 10.598 25.1954 10.2683C25.1494 9.93856 25.2283 9.60338 25.4165 9.32869L25.57 9.14141L27.16 7.5353C27.4086 7.28455 27.7461 7.14268 28.0986 7.14086C28.4511 7.13903 28.7897 7.27738 29.0401 7.52555ZM19.5188 4.205L19.5418 4.44369L19.5501 6.70472C19.5511 7.0375 19.4279 7.35881 19.2046 7.6055C18.9813 7.85219 18.6741 8.0064 18.3433 8.03782C18.0126 8.06924 17.6822 7.97559 17.4172 7.77529C17.1522 7.57499 16.9717 7.28253 16.9112 6.9554L16.8907 6.71757L16.8816 4.45906C16.8819 4.12752 17.0055 3.80783 17.2283 3.56238C17.4511 3.31693 17.7571 3.16335 18.0866 3.13161C18.4161 3.09987 18.7453 3.19225 19.0102 3.39073C19.275 3.5892 19.4563 3.87952 19.5188 4.205Z" fill="#FFCC00"/>
<path d="M29.0345 18.1935C29.0324 17.8809 29.1399 17.5773 29.3384 17.3358C29.5369 17.0943 29.8137 16.9303 30.1205 16.8725L30.3604 16.8525L32.615 16.8403C32.9482 16.8369 33.2704 16.9589 33.5179 17.1822C33.7654 17.4054 33.9201 17.7137 33.9514 18.0461C33.9827 18.3784 33.8884 18.7106 33.687 18.9769C33.4857 19.2433 33.1921 19.4243 32.8641 19.4843L32.6267 19.5052L30.3697 19.5165C30.0171 19.518 29.6785 19.3792 29.4284 19.1307C29.1782 18.8821 29.0369 18.5441 29.0354 18.1909L29.0345 18.1935ZM27.8142 29.1268L27.6325 28.9751L26.0305 27.3869C25.7943 27.153 25.6541 26.8389 25.6376 26.5063C25.6211 26.1738 25.7294 25.8469 25.9413 25.5901C26.1531 25.3332 26.4532 25.165 26.7824 25.1185C27.1116 25.0719 27.446 25.1505 27.72 25.3387L27.9042 25.4913L29.5062 27.0795C29.7424 27.3134 29.8826 27.6275 29.8991 27.9601C29.9156 28.2926 29.8073 28.6195 29.5954 28.8763C29.3835 29.1332 29.0835 29.3014 28.7543 29.3479C28.4251 29.3945 28.0906 29.3159 27.8167 29.1277L27.8142 29.1268ZM7.95943 29.0778C7.73819 28.8581 7.60108 28.5674 7.57203 28.2565C7.54299 27.9456 7.62386 27.6342 7.80052 27.3767L7.95311 27.1919L9.54065 25.5849C9.77447 25.348 10.0882 25.2071 10.4202 25.1901C10.7522 25.1731 11.0783 25.2812 11.3344 25.4931C11.5905 25.705 11.7581 26.0054 11.8041 26.3351C11.8501 26.6648 11.7712 26.9999 11.583 27.2746L11.4295 27.4619L9.83947 29.068C9.59096 29.3188 9.25342 29.4606 8.90094 29.4625C8.54846 29.4643 8.20984 29.3259 7.95943 29.0778ZM17.4807 32.3983L17.4577 32.1596L17.4495 29.8986C17.4484 29.5658 17.5716 29.2445 17.7949 28.9978C18.0182 28.7511 18.3254 28.5969 18.6562 28.5655C18.9869 28.5341 19.3173 28.6277 19.5823 28.828C19.8473 29.0283 20.0278 29.3208 20.0883 29.6479L20.1088 29.8858L20.1179 32.1443C20.1176 32.4758 19.994 32.7955 19.7712 33.041C19.5484 33.2864 19.2424 33.44 18.9129 33.4717C18.5835 33.5035 18.2542 33.4111 17.9893 33.2126C17.7245 33.0141 17.5432 32.7238 17.4807 32.3983Z" fill="#FFCC00"/>
<circle cx="18.5" cy="18.4893" r="7.5" fill="#FFCC00"/>
</svg>
