<svg width="43" height="43" viewBox="0 0 43 43" fill="none" xmlns="http://www.w3.org/2000/svg">
<g clip-path="url(#clip0_363_108)">
<path d="M19.4848 4.86717C20.189 4.77725 20.8981 4.73144 21.608 4.73C22.4866 4.73 23.3492 4.79708 24.1919 4.92608L21.8241 0L19.4848 4.86717ZM0 21.285L4.8912 23.6126C4.80097 22.912 4.75507 22.2064 4.75377 21.5C4.75377 20.6258 4.82119 19.7671 4.95083 18.929L0 21.285ZM8.24649 11.2832C9.20662 10.0409 10.3362 8.93792 11.6027 8.00617L6.54508 6.29649L8.24649 11.2832ZM35.0854 11.4294L37.1036 6.29649L31.9842 8.28997C33.1512 9.19737 34.1937 10.2528 35.0854 11.4294ZM32.0028 34.6958L36.6714 36.2735L35.072 31.5878C34.1879 32.7512 33.1563 33.7959 32.0028 34.6958ZM8.24649 31.7168L6.54464 36.7035L11.2418 34.7195C10.1212 33.8471 9.11488 32.8383 8.24649 31.7168ZM19.4848 38.1328L21.8241 43L24.1919 38.0739C23.3492 38.2029 22.4866 38.27 21.608 38.27C20.8981 38.2686 20.189 38.2228 19.4848 38.1328Z" fill="#CAA40B"/>
<path d="M19.4848 4.86717C20.189 4.77725 20.8981 4.73144 21.608 4.73C22.4866 4.73 23.3492 4.79708 24.1919 4.92608L21.8241 0L19.4848 4.86717ZM0 21.285L4.8912 23.6126C4.80097 22.912 4.75507 22.2064 4.75377 21.5C4.75377 20.6258 4.82119 19.7671 4.95083 18.929L0 21.285ZM8.24649 11.2832C9.20662 10.0409 10.3362 8.93792 11.6027 8.00617L6.54508 6.29649L8.24649 11.2832ZM35.0854 11.4294L37.1036 6.29649L31.9842 8.28997C33.1512 9.19737 34.1937 10.2528 35.0854 11.4294ZM32.0028 34.6958L36.6714 36.2735L35.072 31.5878C34.1879 32.7512 33.1563 33.7959 32.0028 34.6958ZM8.24649 31.7168L6.54464 36.7035L11.2418 34.7195C10.1212 33.8471 9.11488 32.8383 8.24649 31.7168ZM19.4848 38.1328L21.8241 43L24.1919 38.0739C23.3492 38.2029 22.4866 38.27 21.608 38.27C20.8981 38.2686 20.189 38.2228 19.4848 38.1328Z" fill="#CAA40B"/>
<path d="M14.3063 3.14929L14.117 6.47706C15.0163 6.03244 15.9542 5.66948 16.9191 5.3926L14.3063 3.14929ZM5.63495 16.1503C5.93448 15.2609 6.30906 14.3983 6.75468 13.5716L3.45557 13.7767L5.63495 16.1503ZM29.6294 3.01599L26.8389 5.55772C27.8915 5.89953 28.9074 6.34432 29.8718 6.88556L29.6294 3.01599ZM3.69974 29.298L6.6609 29.2464C6.28154 28.5229 5.95597 27.7727 5.68681 27.0018L3.69974 29.298ZM14.6295 39.996L17.1728 37.6791C16.228 37.4236 15.3075 37.0861 14.4221 36.6704L14.6295 39.996ZM29.7314 39.3432L29.9163 36.089C29.0885 36.5584 28.2219 36.9566 27.326 37.2792L29.7314 39.3432Z" fill="#F1C411"/>
<path d="M14.3063 3.14929L14.117 6.47706C15.0163 6.03244 15.9542 5.66948 16.9191 5.3926L14.3063 3.14929ZM5.63495 16.1503C5.93448 15.2609 6.30906 14.3983 6.75468 13.5716L3.45557 13.7767L5.63495 16.1503ZM29.6294 3.01599L26.8389 5.55772C27.8915 5.89953 28.9074 6.34432 29.8718 6.88556L29.6294 3.01599ZM3.69974 29.298L6.6609 29.2464C6.28154 28.5229 5.95597 27.7727 5.68681 27.0018L3.69974 29.298ZM14.6295 39.996L17.1728 37.6791C16.228 37.4236 15.3075 37.0861 14.4221 36.6704L14.6295 39.996ZM29.7314 39.3432L29.9163 36.089C29.0885 36.5584 28.2219 36.9566 27.326 37.2792L29.7314 39.3432Z" fill="#F1C411"/>
<path d="M21.6081 6.02002C30.2003 6.02002 37.1659 12.9503 37.1659 21.5C37.1659 30.0493 30.2003 36.98 21.6081 36.98C13.0154 36.98 6.05029 30.0493 6.05029 21.5C6.05029 12.9503 13.0154 6.02002 21.6081 6.02002Z" fill="#F6D759"/>
<path d="M23.3367 35.26C14.7445 35.26 7.77894 28.3293 7.77894 19.78C7.77894 15.9431 9.18476 12.4352 11.5081 9.73047C8.16875 12.5698 6.05029 16.7876 6.05029 21.5C6.05029 30.0493 13.0159 36.98 21.6081 36.98C26.3502 36.98 30.5888 34.8657 33.4437 31.5383C30.7241 33.8548 27.1977 35.26 23.3367 35.26Z" fill="#DDC14E"/>
<path d="M33.4437 31.5383C30.7241 33.8552 27.1976 35.26 23.3363 35.26C17.7108 35.26 12.7842 32.2891 10.0512 27.8386L8.32257 29.5586C11.0556 34.0091 15.9822 36.98 21.6076 36.98C26.3493 36.98 30.5888 34.8657 33.4437 31.5383Z" fill="#C5AE47"/>
<path d="M20.3116 17.63L0.86438 36.98H37.1659V17.63H20.3116Z" fill="#DCC050"/>
<path d="M41.3076 21.3748C41.5592 20.6739 41.7035 19.9219 41.7035 19.135C41.7035 15.4537 38.7047 12.47 35.005 12.47C32.186 12.47 29.7776 14.2046 28.7897 16.6582C27.7406 15.6262 26.3244 15.0482 24.8492 15.05C21.7463 15.05 19.2311 17.5526 19.2311 20.64C19.2311 21.9566 19.691 23.1649 20.4576 24.1204C18.7873 24.3629 17.5025 25.7905 17.5025 27.52C17.5025 28.4323 17.8668 29.3073 18.5151 29.9524C19.1635 30.5975 20.0429 30.96 20.9598 30.96H37.3819C40.4848 30.96 43 28.4574 43 25.37C43 23.8035 42.3509 22.3896 41.3076 21.3748Z" fill="white"/>
<g filter="url(#filter0_d_363_108)">
<path d="M41.3076 21.3748C41.5592 20.6739 41.7035 19.9219 41.7035 19.135C41.7035 15.4537 38.7047 12.47 35.005 12.47C32.186 12.47 29.7776 14.2046 28.7897 16.6582C27.7406 15.6262 26.3244 15.0482 24.8492 15.05C21.7463 15.05 19.2311 17.5526 19.2311 20.64C19.2311 21.9566 19.691 23.1649 20.4576 24.1204C18.7873 24.3629 17.5025 25.7905 17.5025 27.52C17.5025 28.4323 17.8668 29.3073 18.5151 29.9524C19.1635 30.5975 20.0429 30.96 20.9598 30.96H37.3819C40.4848 30.96 43 28.4574 43 25.37C43 23.8035 42.3509 22.3896 41.3076 21.3748Z" fill="white"/>
</g>
</g>
<defs>
<filter id="filter0_d_363_108" x="13.5025" y="10.47" width="33.4975" height="26.49" filterUnits="userSpaceOnUse" color-interpolation-filters="sRGB">
<feFlood flood-opacity="0" result="BackgroundImageFix"/>
<feColorMatrix in="SourceAlpha" type="matrix" values="0 0 0 0 0 0 0 0 0 0 0 0 0 0 0 0 0 0 127 0" result="hardAlpha"/>
<feOffset dy="2"/>
<feGaussianBlur stdDeviation="2"/>
<feComposite in2="hardAlpha" operator="out"/>
<feColorMatrix type="matrix" values="0 0 0 0 0.854167 0 0 0 0 0.854167 0 0 0 0 0.854167 0 0 0 0.25 0"/>
<feBlend mode="normal" in2="BackgroundImageFix" result="effect1_dropShadow_363_108"/>
<feBlend mode="normal" in="SourceGraphic" in2="effect1_dropShadow_363_108" result="shape"/>
</filter>
<clipPath id="clip0_363_108">
<rect width="43" height="43" fill="white"/>
</clipPath>
</defs>
</svg>
