<svg width="24" height="19" viewBox="0 0 24 19" fill="none" xmlns="http://www.w3.org/2000/svg">
<path d="M0.314972 3.90207C0.0786245 3.61322 -0.0299845 3.24632 0.0126828 2.88089C0.0553501 2.51547 0.245856 2.18095 0.542914 1.94985C0.686877 1.83433 2.05453 0.829341 4.21398 0.309519C6.37343 -0.210302 9.38467 -0.302715 12.8038 1.88054C17.6266 4.97636 21.6216 1.9845 21.6575 1.94985C21.8056 1.83607 21.9756 1.7515 22.1576 1.70096C22.3396 1.65041 22.5302 1.63489 22.7185 1.65527C22.9068 1.67565 23.089 1.73154 23.2549 1.81974C23.4207 1.90794 23.5669 2.02673 23.685 2.16933C23.8032 2.31192 23.891 2.47553 23.9435 2.65081C23.996 2.82609 24.0121 3.00961 23.991 3.19089C23.9698 3.37217 23.9118 3.54766 23.8202 3.70734C23.7286 3.86703 23.6052 4.00777 23.4571 4.12155C23.3131 4.23706 21.9455 5.24205 19.786 5.76187C18.9744 5.96084 18.1402 6.06173 17.3027 6.06221C15.5391 6.06221 13.4276 5.62325 11.1962 4.19086C6.37343 1.09503 2.37845 4.08689 2.34246 4.12155C2.04247 4.34912 1.66143 4.4537 1.28192 4.41261C0.902401 4.37153 0.554989 4.1881 0.314972 3.90207ZM21.6575 8.41874C21.6216 8.45339 17.6266 11.4453 12.8038 8.34943C9.38467 6.16618 6.24146 6.28169 4.21398 6.77841C2.1865 7.27513 0.686877 8.30322 0.542914 8.41874C0.39482 8.53251 0.27145 8.67326 0.179847 8.83294C0.0882446 8.99262 0.0302031 9.16811 0.00903672 9.34939C-0.0121297 9.53067 0.00399368 9.71419 0.056486 9.88947C0.108978 10.0648 0.196812 10.2284 0.314972 10.371C0.433131 10.5136 0.579303 10.6323 0.745141 10.7205C0.910979 10.8087 1.09324 10.8646 1.28151 10.885C1.46977 10.9054 1.66037 10.8899 1.84241 10.8393C2.02445 10.7888 2.19436 10.7042 2.34246 10.5904C2.37845 10.5558 6.37343 7.56392 11.1962 10.6597C13.4276 12.0921 15.5391 12.5311 17.3027 12.5311C18.1402 12.5306 18.9744 12.4297 19.786 12.2308C21.9455 11.7109 23.3131 10.706 23.4571 10.5904C23.7562 10.3607 23.9482 10.0259 23.991 9.65979C24.0337 9.29367 23.9237 8.92621 23.685 8.63822C23.4464 8.35023 23.0987 8.16532 22.7185 8.12416C22.3383 8.083 21.9566 8.18896 21.6575 8.41874ZM21.6575 14.8876C21.6216 14.9223 17.6266 17.9142 12.8038 14.8183C9.38467 12.6351 6.24146 12.7506 4.21398 13.2473C2.1865 13.744 0.686877 14.7721 0.542914 14.8876C0.243825 15.1174 0.0517844 15.4522 0.00903695 15.8183C-0.0337105 16.1844 0.0763375 16.5519 0.314972 16.8399C0.553606 17.1278 0.901278 17.3127 1.28151 17.3539C1.66173 17.3951 2.04337 17.2891 2.34246 17.0593C2.37845 17.0247 6.37343 14.0328 11.1962 17.1286C13.4276 18.561 15.5391 19 17.3027 19C18.1402 18.9995 18.9744 18.8986 19.786 18.6997C21.9455 18.1798 23.3131 17.1748 23.4571 17.0593C23.7562 16.8296 23.9482 16.4948 23.991 16.1287C24.0337 15.7626 23.9237 15.3951 23.685 15.1071C23.4464 14.8191 23.0987 14.6342 22.7185 14.5931C22.3383 14.5519 21.9566 14.6579 21.6575 14.8876Z" fill="#CBCBCB"/>
</svg>
