<svg width="30" height="27" viewBox="0 0 30 27" fill="none" xmlns="http://www.w3.org/2000/svg">
<path d="M8.26125 2.43238C10.1353 0.870245 12.5255 0.00750106 15 0C20.0438 0 24.2306 3.625 24.6863 8.29944C27.6713 8.70725 30 11.1233 30 14.0886C30 17.3438 27.1913 19.9375 23.7881 19.9375H7.08937C3.2025 19.9375 0 16.9759 0 13.2639C0 10.0684 2.37375 7.42219 5.51625 6.75156C5.78437 5.18737 6.825 3.62863 8.26125 2.43238V2.43238Z" fill="#DDDDDD"/>
<path d="M10 23.5C10 24.3284 9.32843 25 8.5 25C7.67157 25 7 24.3284 7 23.5C7 22.6716 7.67157 22 8.5 22C9.32843 22 10 22.6716 10 23.5Z" fill="#A8C5EA"/>
<path d="M16 25.5C16 26.3284 15.3284 27 14.5 27C13.6716 27 13 26.3284 13 25.5C13 24.6716 13.6716 24 14.5 24C15.3284 24 16 24.6716 16 25.5Z" fill="#A8C5EA"/>
<path d="M22 23.5C22 24.3284 21.3284 25 20.5 25C19.6716 25 19 24.3284 19 23.5C19 22.6716 19.6716 22 20.5 22C21.3284 22 22 22.6716 22 23.5Z" fill="#A8C5EA"/>
</svg>
