<svg width="30" height="23" viewBox="0 0 30 23" fill="none" xmlns="http://www.w3.org/2000/svg">
<path d="M16.8748 5.53133C21.4968 5.53133 24.118 8.43343 24.4987 11.9366H24.6149C27.5887 11.9366 30 14.2174 30 17.031C30 19.8446 27.5887 22.1253 24.6149 22.1253H9.13471C6.16092 22.1253 3.74964 19.8446 3.74964 17.031C3.74964 14.2174 6.16092 11.9366 9.13471 11.9366H9.25096C9.63534 8.40946 12.2529 5.53133 16.8748 5.53133ZM16.8748 7.3751C13.781 7.3751 11.0866 9.7167 11.0866 12.9525C11.0866 13.4651 10.6104 13.867 10.0647 13.867H9.03346C7.15093 13.867 5.62466 15.3033 5.62466 17.0752C5.62466 18.8434 7.15093 20.2815 9.03346 20.2815H24.7162C26.5987 20.2815 28.125 18.8452 28.125 17.0734C28.125 15.3033 26.5987 13.867 24.7162 13.867H23.6849C23.1412 13.867 22.663 13.4651 22.663 12.9525C22.663 9.67613 19.9686 7.3751 16.8748 7.3751ZM11.9848 6.42659e-08C14.7148 6.42659e-08 17.0961 1.52665 18.2717 3.77052C17.4729 3.67312 16.6659 3.65952 15.8642 3.72996C15.401 3.14377 14.808 2.66919 14.1302 2.34234C13.4524 2.01549 12.7078 1.84497 11.9529 1.84378C9.52284 1.84378 7.45281 3.58799 7.04031 5.94618L6.97093 6.33337C6.89576 6.76187 6.669 7.15045 6.3307 7.43047C5.99241 7.7105 5.56435 7.86394 5.12216 7.8637H4.6384C3.11213 7.8637 1.87461 9.09534 1.87461 10.6146C1.87461 11.6656 2.46525 12.5782 3.33338 13.041C2.93213 13.5425 2.60212 14.103 2.35837 14.7041C1.46512 14.169 0.768731 13.3676 0.37042 12.4166C-0.0278916 11.4655 -0.107358 10.4144 0.143571 9.41585C0.3945 8.41735 0.962746 7.52357 1.7657 6.86443C2.56866 6.20529 3.56448 5.81516 4.6084 5.75074L5.02278 5.74152C5.31191 4.13251 6.16822 2.67508 7.44137 1.62512C8.71452 0.575157 10.3231 -0.00022202 11.9848 6.42659e-08V6.42659e-08Z" fill="#333333"/>
</svg>
