<svg width="28" height="18" viewBox="0 0 28 18" fill="none" xmlns="http://www.w3.org/2000/svg">
<path d="M6.609 1.952C8.10822 0.698378 10.0204 0.00601966 12 0C16.035 0 19.3845 2.90909 19.749 6.66036C22.137 6.98764 24 8.92655 24 11.3062C24 13.9185 21.753 16 19.0305 16H5.6715C2.562 16 0 13.6233 0 10.6444C0 8.08 1.899 5.95636 4.413 5.41818C4.6275 4.16291 5.46 2.912 6.609 1.952V1.952Z" fill="#CBCBCB"/>
<path d="M10.609 3.952C12.1082 2.69838 14.0204 2.00602 16 2C20.035 2 23.3845 4.90909 23.749 8.66036C26.137 8.98764 28 10.9265 28 13.3062C28 15.9185 25.753 18 23.0305 18H9.6715C6.562 18 4 15.6233 4 12.6444C4 10.08 5.899 7.95636 8.413 7.41818C8.6275 6.16291 9.46 4.912 10.609 3.952V3.952Z" fill="#DDDDDD"/>
</svg>
