<svg width="30" height="30" viewBox="0 0 30 30" fill="none" xmlns="http://www.w3.org/2000/svg">
<path d="M15 0C20.2821 0 23.2779 3.3538 23.7129 7.40223H23.8457C27.2443 7.40223 30 10.038 30 13.2895C30 16.541 27.2443 19.1768 23.8457 19.1768L22.3393 19.1746V19.1768H22.275L20.2243 22.8864C20.0846 23.1288 19.8548 23.3069 19.5843 23.3824C19.3138 23.4579 19.0243 23.4248 18.7782 23.2901C18.532 23.1555 18.3489 22.93 18.2683 22.6624C18.1877 22.3948 18.216 22.1064 18.3471 21.8594L19.8321 19.1746H15.9364V19.1768H15.8486L13.7957 22.8864C13.656 23.1288 13.4262 23.3069 13.1557 23.3824C12.8852 23.4579 12.5957 23.4248 12.3496 23.2901C12.1034 23.1555 11.9203 22.93 11.8397 22.6624C11.7591 22.3948 11.7874 22.1064 11.9186 21.8594L13.4036 19.1746H9.49714V19.1768H9.42L7.36714 22.8864C7.22746 23.1288 6.99763 23.3069 6.72714 23.3824C6.45665 23.4579 6.16716 23.4248 5.92101 23.2901C5.67487 23.1555 5.49176 22.93 5.41115 22.6624C5.33053 22.3948 5.35885 22.1064 5.49 21.8594L6.975 19.1746L6.15429 19.1768C2.75571 19.1768 0 16.541 0 13.2895C0 10.1573 2.55429 7.59826 5.77929 7.41288L6.28714 7.40223C6.72643 3.3261 9.71786 0 15 0ZM8.80714 17.046H23.9593C26.115 17.046 27.8571 15.3862 27.8571 13.3385C27.8571 11.293 26.1129 9.63312 23.9614 9.63312H22.7829C22.1614 9.63312 21.615 9.16862 21.615 8.57627C21.615 4.78993 18.5357 2.13075 15 2.13075C11.4643 2.13075 8.385 4.8368 8.385 8.57627C8.385 9.16862 7.84071 9.63312 7.21714 9.63312H6.03857C3.88714 9.63312 2.14286 11.293 2.14286 13.3406C2.14286 15.384 3.88714 17.046 6.03857 17.046H8.76643C8.78071 17.0458 8.795 17.0458 8.80929 17.046H8.80714Z" fill="#333333"/>
<path d="M10.1745 24.1117C10.4211 24.2519 10.6016 24.4837 10.6764 24.7562C10.7511 25.0287 10.714 25.3196 10.5731 25.5648L8.43026 29.2936C8.28574 29.5318 8.05326 29.7044 7.7825 29.7744C7.51173 29.8444 7.22417 29.8064 6.98126 29.6683C6.73835 29.5303 6.55937 29.3033 6.48257 29.0358C6.40577 28.7683 6.43724 28.4815 6.57026 28.2368L8.71311 24.508C8.85412 24.2628 9.08727 24.0833 9.36132 24.009C9.63536 23.9347 9.92787 23.9716 10.1745 24.1117V24.1117Z" fill="#333333"/>
<path d="M17.0008 25.5647C17.1339 25.32 17.1653 25.0332 17.0885 24.7657C17.0117 24.4982 16.8328 24.2712 16.5898 24.1332C16.3469 23.9952 16.0594 23.9571 15.7886 24.0271C15.5178 24.0971 15.2854 24.2697 15.1408 24.5079L12.998 28.2367C12.865 28.4814 12.8335 28.7682 12.9103 29.0357C12.9871 29.3032 13.1661 29.5302 13.409 29.6682C13.6519 29.8062 13.9395 29.8443 14.2102 29.7743C14.481 29.7043 14.7135 29.5317 14.858 29.2935L17.0008 25.5647V25.5647Z" fill="#333333"/>
</svg>
