<svg width="30" height="33" viewBox="0 0 30 33" fill="none" xmlns="http://www.w3.org/2000/svg">
<path d="M9.91553 19.0489C9.8267 18.7903 9.64967 18.571 9.41533 18.4292C9.15021 18.2692 8.83232 18.2206 8.53143 18.2942C8.23054 18.3677 7.97125 18.5573 7.81048 18.8214L5.20381 23.6913L5.11122 23.8819C5.0069 24.1541 5.00849 24.4553 5.11568 24.7265C5.22288 24.9976 5.42791 25.2189 5.69043 25.3469C5.95295 25.4749 6.25395 25.5003 6.53419 25.4181C6.81443 25.3359 7.05361 25.152 7.20467 24.9026L9.809 20.0325L9.90138 19.8442C9.99935 19.589 10.0044 19.3075 9.91553 19.0489Z" fill="#66AAFF"/>
<path d="M10.5362 27.0513C10.469 26.7863 10.3107 26.5531 10.0889 26.3925C9.83786 26.2111 9.52506 26.1365 9.21913 26.1849C8.9132 26.2333 8.63915 26.4009 8.45713 26.6508L6.4075 30.4338L6.29948 30.6162C6.17306 30.8788 6.14978 31.1792 6.23423 31.4582C6.31869 31.7373 6.50475 31.9748 6.75582 32.124C7.00688 32.2732 7.30476 32.3234 7.59083 32.2646C7.8769 32.2057 8.13044 32.0422 8.30156 31.8062L10.3489 28.0227L10.4565 27.8427C10.5752 27.5964 10.6034 27.3163 10.5362 27.0513Z" fill="#66AAFF"/>
<path d="M16.5362 27.0513C16.469 26.7863 16.3107 26.5531 16.0889 26.3925C15.8379 26.2111 15.5251 26.1365 15.2191 26.1849C14.9132 26.2333 14.6391 26.4009 14.4571 26.6508L12.4075 30.4338L12.2995 30.6162C12.1731 30.8788 12.1498 31.1792 12.2342 31.4582C12.3187 31.7373 12.5048 31.9748 12.7558 32.124C13.0069 32.2732 13.3048 32.3234 13.5908 32.2646C13.8769 32.2057 14.1304 32.0422 14.3016 31.8062L16.3489 28.0227L16.4565 27.8427C16.5752 27.5964 16.6034 27.3163 16.5362 27.0513Z" fill="#66AAFF"/>
<path d="M15.9829 19.0489C15.8941 18.7903 15.7171 18.571 15.4827 18.4292C15.2176 18.2692 14.8997 18.2206 14.5988 18.2942C14.2979 18.3677 14.0386 18.5573 13.8779 18.8214L11.2712 23.6913L11.1786 23.8819C11.0743 24.1541 11.0759 24.4553 11.1831 24.7265C11.2903 24.9976 11.4953 25.2189 11.7578 25.3469C12.0203 25.4749 12.3213 25.5003 12.6016 25.4181C12.8818 25.3359 13.121 25.152 13.2721 24.9026L15.8764 20.0325L15.9688 19.8442C16.0667 19.589 16.0717 19.3075 15.9829 19.0489Z" fill="#66AAFF"/>
<path d="M22.0503 19.0489C21.9615 18.7903 21.7844 18.571 21.5501 18.4292C21.285 18.2692 20.9671 18.2206 20.6662 18.2942C20.3653 18.3677 20.106 18.5573 19.9452 18.8214L17.3386 23.6913L17.246 23.8819C17.1417 24.1541 17.1433 24.4553 17.2504 24.7265C17.3576 24.9976 17.5627 25.2189 17.8252 25.3469C18.0877 25.4749 18.3887 25.5003 18.669 25.4181C18.9492 25.3359 19.1884 25.152 19.3394 24.9026L21.9438 20.0325L22.0361 19.8442C22.1341 19.589 22.1391 19.3075 22.0503 19.0489Z" fill="#66AAFF"/>
<path d="M8.26125 2.43238C10.1353 0.870245 12.5255 0.00750106 15 0C20.0438 0 24.2306 3.625 24.6863 8.29944C27.6713 8.70725 30 11.1233 30 14.0886C30 17.3438 27.1913 19.9375 23.7881 19.9375H7.08937C3.2025 19.9375 0 16.9759 0 13.2639C0 10.0684 2.37375 7.42219 5.51625 6.75156C5.78437 5.18737 6.825 3.62863 8.26125 2.43238V2.43238Z" fill="#DDDDDD"/>
</svg>
