<svg width="30" height="26" viewBox="0 0 30 26" fill="none" xmlns="http://www.w3.org/2000/svg">
<path d="M15 0C20.2811 0 23.2771 3.49603 23.713 7.7171H23.8463C27.2448 7.7171 30 10.4656 30 13.8549C30 17.2451 27.2448 19.9928 23.8463 19.9928L22.4104 19.9936C22.4002 20.0201 22.3891 20.0462 22.3771 20.0719L22.3221 20.1786L19.4052 25.2314C19.2447 25.5095 18.9832 25.7152 18.6751 25.8057C18.367 25.8963 18.0358 25.8648 17.7503 25.7177C17.4648 25.5707 17.2468 25.3194 17.1416 25.016C17.0364 24.7125 17.0519 24.3802 17.1851 24.088L17.2401 23.9805L19.5428 19.9928L15.9626 19.9936L15.9301 20.0719L15.875 20.1786L12.9582 25.2314C12.7976 25.5095 12.5362 25.7152 12.2281 25.8057C11.9199 25.8963 11.5888 25.8648 11.3033 25.7177C11.0177 25.5707 10.7998 25.3194 10.6946 25.016C10.5893 24.7125 10.6049 24.3802 10.7381 24.088L10.7931 23.9805L13.0949 19.9928L9.51553 19.9936C9.50528 20.0201 9.49417 20.0462 9.48219 20.0719L9.42802 20.1786L6.51119 25.2314C6.3518 25.5119 6.09016 25.7198 5.78098 25.8119C5.47179 25.9039 5.139 25.8728 4.85219 25.7252C4.56538 25.5775 4.34675 25.3247 4.24202 25.0196C4.13729 24.7145 4.15457 24.3807 4.29024 24.088L4.34524 23.9805L6.64787 19.9928H6.15368C2.75515 19.9928 0 17.2451 0 13.8549C0 10.4656 2.75515 7.7171 6.15368 7.7171H6.28702C6.72537 3.46769 9.71887 0 15.0008 0H15ZM15 2.07928C11.449 2.07928 8.3538 4.95277 8.3538 8.92133C8.3538 9.55053 7.8071 10.0447 7.1804 10.0447H5.997C3.83521 10.0447 2.08262 11.8057 2.08262 13.9783C2.08262 16.1517 3.83521 17.9135 5.997 17.9135H24.003C26.1648 17.9135 27.9174 16.1517 27.9174 13.9791C27.9174 11.8057 26.1648 10.0439 24.003 10.0439H22.8196C22.1929 10.0439 21.6462 9.55053 21.6462 8.92216C21.6462 4.90194 18.551 2.08012 15 2.08012V2.07928Z" fill="#333333"/>
</svg>
