<svg width="30" height="25" viewBox="0 0 30 25" fill="none" xmlns="http://www.w3.org/2000/svg">
<path d="M16.8529 7.493C21.4826 7.493 24.1082 10.4473 24.4895 14.0177H24.6059C27.5847 14.0177 30 16.341 30 19.207C30 22.0731 27.5847 24.3964 24.6059 24.3964H9.09992C6.12117 24.3964 3.70587 22.0731 3.70587 19.207C3.70587 16.341 6.12117 14.0177 9.09992 14.0177H9.21637C9.60139 10.4229 12.2233 7.493 16.8529 7.493ZM16.8529 9.37115C13.754 9.37115 11.0551 11.7564 11.0551 15.0526C11.0551 15.5747 10.578 15.9841 10.0315 15.9841H8.9985C7.11284 15.9822 5.58402 17.4472 5.58402 19.2502C5.58402 21.0533 7.11284 22.5182 8.9985 22.5182H24.7074C26.593 22.5182 28.1218 21.0533 28.1218 19.2502C28.1218 17.4472 26.593 15.9823 24.7074 15.9823H23.6744C23.1297 15.9841 22.6508 15.5747 22.6508 15.0526C22.6508 11.7151 19.9519 9.37115 16.8529 9.37115ZM3.33587 12.564C3.40823 12.772 3.40518 12.9989 3.32725 13.2048C3.24931 13.4108 3.10146 13.5829 2.90953 13.6909L2.75365 13.7585L1.24925 14.2769C1.02723 14.3546 0.784152 14.3461 0.568075 14.2532C0.351997 14.1603 0.178659 13.9896 0.0823428 13.7751C-0.0139737 13.5605 -0.0262548 13.3175 0.0479282 13.0943C0.122111 12.8711 0.277356 12.6839 0.48296 12.5696L0.636968 12.502L2.14325 11.9837C2.37861 11.9029 2.63641 11.9188 2.86003 12.028C3.08364 12.1372 3.25479 12.3306 3.33587 12.5659V12.564ZM12.9464 4.67577C13.5718 4.98003 14.1221 5.37632 14.5879 5.84023C13.8254 5.99611 13.1117 6.23464 12.4543 6.54453C11.606 6.03397 10.6071 5.8331 9.62741 5.97612C8.64773 6.11914 7.74788 6.59721 7.08099 7.32898C6.4141 8.06074 6.02138 9.00098 5.96966 9.98968C5.91794 10.9784 6.21041 11.9545 6.79731 12.7518C6.17752 12.9359 5.59529 13.2045 5.06002 13.5407C4.33339 12.4094 3.99681 11.0715 4.10163 9.73106C4.20646 8.39064 4.74694 7.12132 5.64059 6.11678C6.53425 5.11224 7.73201 4.42765 9.05111 4.16747C10.3702 3.90728 11.7382 4.0858 12.9464 4.67577V4.67577ZM1.67183 4.99506L1.82772 5.05516L3.25887 5.75195C3.46985 5.85452 3.6348 6.03233 3.72127 6.2504C3.80773 6.46847 3.80944 6.71101 3.72607 6.93028C3.64269 7.14956 3.48027 7.32968 3.27076 7.43521C3.06125 7.54075 2.81983 7.56404 2.594 7.50051L2.43624 7.44041L1.00509 6.74362C0.794106 6.64106 0.629153 6.46324 0.542688 6.24517C0.456224 6.0271 0.454511 5.78456 0.537886 5.56529C0.621261 5.34602 0.783686 5.16589 0.993197 5.06036C1.20271 4.95483 1.44413 4.93153 1.66995 4.99506H1.67183ZM14.956 0.534448C15.1537 0.630929 15.3113 0.79378 15.4013 0.994584C15.4912 1.19539 15.5078 1.42139 15.4481 1.63317L15.388 1.79093L14.6912 3.22208C14.5886 3.43306 14.4108 3.59802 14.1927 3.68448C13.9747 3.77095 13.7321 3.77266 13.5129 3.68928C13.2936 3.60591 13.1135 3.44348 13.0079 3.23397C12.9024 3.02446 12.8791 2.78304 12.9426 2.55722L13.0027 2.39758L13.7014 0.966423C13.8106 0.742924 14.0041 0.57191 14.2393 0.49092C14.4746 0.409931 14.7323 0.425586 14.956 0.534448V0.534448ZM7.8378 0.474347L7.9073 0.628356L8.42567 2.13463C8.50187 2.35636 8.49237 2.59857 8.39904 2.81365C8.30572 3.02873 8.13531 3.20112 7.92133 3.29693C7.70734 3.39274 7.46526 3.40504 7.24267 3.33141C7.02007 3.25778 6.83307 3.10355 6.71843 2.89904L6.65081 2.74503L6.13244 1.24063C6.05744 1.01943 6.06756 0.778214 6.16083 0.564072C6.25411 0.34993 6.42384 0.178234 6.63689 0.0825011C6.84994 -0.0132322 7.09103 -0.0261312 7.31308 0.0463222C7.53513 0.118776 7.72221 0.271381 7.8378 0.474347V0.474347Z" fill="#333333"/>
</svg>
