<svg width="30" height="28" viewBox="0 0 30 28" fill="none" xmlns="http://www.w3.org/2000/svg">
<path d="M21.6377 21.1354C21.6754 21.0681 21.7392 21.0191 21.8149 20.9991C21.8907 20.9792 21.9722 20.9898 22.0416 21.0288L22.638 21.3637L22.623 20.6871C22.6232 20.6107 22.6538 20.5381 22.7083 20.485C22.7628 20.4319 22.8368 20.4024 22.9146 20.4029C22.9923 20.4034 23.0676 20.4337 23.1244 20.4875C23.1811 20.5413 23.2148 20.6142 23.2183 20.6907L23.2325 21.3589L23.8105 21.0233C23.8776 20.9865 23.9574 20.9773 24.0328 20.9977C24.1083 21.0182 24.1734 21.0667 24.2143 21.1328C24.2551 21.199 24.2685 21.2775 24.2515 21.3517C24.2345 21.4259 24.1885 21.4898 24.1233 21.5298L23.5388 21.8697L24.1342 22.204C24.2035 22.243 24.2551 22.3071 24.2774 22.3821C24.2998 22.4572 24.2911 22.5372 24.2534 22.6044C24.2156 22.6716 24.1519 22.7206 24.0761 22.7406C24.0004 22.7606 23.9188 22.7499 23.8494 22.711L23.2531 22.376L23.2681 23.0526C23.2678 23.1291 23.2372 23.2016 23.1827 23.2547C23.1282 23.3078 23.0542 23.3373 22.9765 23.3368C22.8987 23.3364 22.8234 23.306 22.7667 23.2522C22.7099 23.1984 22.6762 23.1255 22.6728 23.049L22.6585 22.3809L22.0806 22.7164C22.0135 22.7533 21.9337 22.7625 21.8582 22.742C21.7827 22.7215 21.7176 22.6731 21.6768 22.6069C21.6359 22.5408 21.6225 22.4622 21.6395 22.388C21.6565 22.3139 21.7025 22.25 21.7677 22.21L22.3522 21.8701L21.7569 21.5357C21.6875 21.4968 21.636 21.4327 21.6136 21.3576C21.5913 21.2825 21.5999 21.2026 21.6377 21.1354Z" fill="#333333"/>
<path d="M18.6377 25.1354C18.6754 25.0681 18.7392 25.0191 18.8149 24.9991C18.8907 24.9792 18.9722 24.9898 19.0416 25.0288L19.638 25.3637L19.623 24.6871C19.6232 24.6107 19.6538 24.5381 19.7083 24.485C19.7628 24.4319 19.8368 24.4024 19.9146 24.4029C19.9923 24.4034 20.0676 24.4337 20.1244 24.4875C20.1811 24.5413 20.2148 24.6142 20.2183 24.6907L20.2325 25.3589L20.8105 25.0233C20.8776 24.9865 20.9574 24.9773 21.0328 24.9977C21.1083 25.0182 21.1734 25.0667 21.2143 25.1328C21.2551 25.199 21.2685 25.2775 21.2515 25.3517C21.2345 25.4259 21.1885 25.4898 21.1233 25.5298L20.5388 25.8697L21.1342 26.204C21.2035 26.243 21.2551 26.3071 21.2774 26.3821C21.2998 26.4572 21.2911 26.5372 21.2534 26.6044C21.2156 26.6716 21.1519 26.7206 21.0761 26.7406C21.0004 26.7606 20.9188 26.7499 20.8494 26.711L20.2531 26.376L20.2681 27.0526C20.2678 27.1291 20.2372 27.2016 20.1827 27.2547C20.1282 27.3078 20.0542 27.3373 19.9765 27.3368C19.8987 27.3364 19.8234 27.306 19.7667 27.2522C19.7099 27.1984 19.6762 27.1255 19.6728 27.049L19.6585 26.3809L19.0806 26.7164C19.0135 26.7533 18.9337 26.7625 18.8582 26.742C18.7827 26.7215 18.7176 26.6731 18.6768 26.6069C18.6359 26.5408 18.6225 26.4622 18.6395 26.388C18.6565 26.3139 18.7025 26.25 18.7677 26.21L19.3522 25.8701L18.7569 25.5357C18.6875 25.4968 18.636 25.4327 18.6136 25.3576C18.5913 25.2825 18.5999 25.2026 18.6377 25.1354Z" fill="#333333"/>
<path d="M15.6377 21.1354C15.6754 21.0681 15.7392 21.0191 15.8149 20.9991C15.8907 20.9792 15.9722 20.9898 16.0416 21.0288L16.638 21.3637L16.623 20.6871C16.6232 20.6107 16.6538 20.5381 16.7083 20.485C16.7628 20.4319 16.8368 20.4024 16.9146 20.4029C16.9923 20.4034 17.0676 20.4337 17.1244 20.4875C17.1811 20.5413 17.2148 20.6142 17.2183 20.6907L17.2325 21.3589L17.8105 21.0233C17.8776 20.9865 17.9574 20.9773 18.0328 20.9977C18.1083 21.0182 18.1734 21.0667 18.2143 21.1328C18.2551 21.199 18.2685 21.2775 18.2515 21.3517C18.2345 21.4259 18.1885 21.4898 18.1233 21.5298L17.5388 21.8697L18.1342 22.204C18.2035 22.243 18.2551 22.3071 18.2774 22.3821C18.2998 22.4572 18.2911 22.5372 18.2534 22.6044C18.2156 22.6716 18.1519 22.7206 18.0761 22.7406C18.0004 22.7606 17.9188 22.7499 17.8494 22.711L17.2531 22.376L17.2681 23.0526C17.2678 23.1291 17.2372 23.2016 17.1827 23.2547C17.1282 23.3078 17.0542 23.3373 16.9765 23.3368C16.8987 23.3364 16.8234 23.306 16.7667 23.2522C16.7099 23.1984 16.6762 23.1255 16.6728 23.049L16.6585 22.3809L16.0806 22.7164C16.0135 22.7533 15.9337 22.7625 15.8582 22.742C15.7827 22.7215 15.7176 22.6731 15.6768 22.6069C15.6359 22.5408 15.6225 22.4622 15.6395 22.388C15.6565 22.3139 15.7025 22.25 15.7677 22.21L16.3522 21.8701L15.7569 21.5357C15.6875 21.4968 15.636 21.4327 15.6136 21.3576C15.5913 21.2825 15.5999 21.2026 15.6377 21.1354Z" fill="#333333"/>
<path d="M9.73314 18.1402C9.97973 18.2804 10.1602 18.5123 10.235 18.7848C10.3097 19.0573 10.2726 19.3481 10.1317 19.5934L7.98885 23.3222C7.84434 23.5604 7.61186 23.733 7.34109 23.803C7.07033 23.873 6.78276 23.8349 6.53985 23.6969C6.29695 23.5589 6.11796 23.3319 6.04116 23.0644C5.96436 22.7969 5.99583 22.5101 6.12885 22.2654L8.27171 18.5365C8.41271 18.2913 8.64586 18.1119 8.91991 18.0375C9.19396 17.9632 9.48647 18.0002 9.73314 18.1402V18.1402Z" fill="#333333"/>
<path d="M12.7331 22.1402C12.9797 22.2804 13.1602 22.5123 13.235 22.7848C13.3097 23.0573 13.2726 23.3481 13.1317 23.5934L10.9889 27.3222C10.8443 27.5604 10.6119 27.733 10.3411 27.803C10.0703 27.873 9.78276 27.8349 9.53985 27.6969C9.29695 27.5589 9.11796 27.3319 9.04116 27.0644C8.96436 26.7969 8.99583 26.5101 9.12885 26.2654L11.2717 22.5365C11.4127 22.2913 11.6459 22.1119 11.9199 22.0375C12.194 21.9632 12.4865 22.0002 12.7331 22.1402V22.1402Z" fill="#333333"/>
<path d="M15 0C20.28 0 23.2779 3.37012 23.7129 7.43825H23.8457C27.2443 7.43825 30 10.0868 30 13.3542C30 16.6215 27.2443 19.2701 23.8457 19.2701H6.15429C2.75572 19.2701 0 16.6215 0 13.3542C0 10.2067 2.55429 7.63523 5.77929 7.44896L6.28714 7.43825C6.72429 3.34229 9.71786 0 15 0ZM15 2.14112C11.4643 2.14112 8.385 4.86034 8.385 8.61801C8.385 9.21324 7.84071 9.68 7.21714 9.68H6.03857C3.88714 9.68 2.14286 11.3479 2.14286 13.4055C2.14286 15.4589 3.88714 17.129 6.03857 17.129H23.9614C26.1129 17.129 27.8571 15.461 27.8571 13.4034C27.8571 11.3479 26.1129 9.68 23.9614 9.68H22.7829C22.1593 9.68 21.615 9.21324 21.615 8.61801C21.615 4.81324 18.5336 2.14112 15 2.14112Z" fill="#333333"/>
</svg>
