<svg width="30" height="30" viewBox="0 0 30 30" fill="none" xmlns="http://www.w3.org/2000/svg">
<path d="M6.16801 21.8978C6.27394 21.8978 6.37553 21.9398 6.45043 22.0147C6.52533 22.0896 6.56741 22.1912 6.56741 22.2972V23.2078L7.36782 22.7493C7.45957 22.6997 7.56707 22.688 7.66736 22.7166C7.76764 22.7452 7.85275 22.812 7.90449 22.9025C7.95624 22.9931 7.97051 23.1003 7.94426 23.2012C7.91801 23.3021 7.85332 23.3888 7.76402 23.4427L6.97321 23.8948L7.76402 24.3469C7.85332 24.4008 7.91801 24.4874 7.94426 24.5884C7.97051 24.6893 7.95624 24.7965 7.90449 24.8871C7.85275 24.9776 7.76764 25.0443 7.66736 25.073C7.56707 25.1016 7.45957 25.0898 7.36782 25.0403L6.56741 24.5833V25.4924C6.56741 25.5983 6.52533 25.6999 6.45043 25.7748C6.37553 25.8497 6.27394 25.8918 6.16801 25.8918C6.06208 25.8918 5.96049 25.8497 5.88559 25.7748C5.81069 25.6999 5.76861 25.5983 5.76861 25.4924V24.5818L4.96821 25.0403C4.87646 25.0898 4.76895 25.1016 4.66867 25.073C4.56838 25.0443 4.48327 24.9776 4.43153 24.8871C4.37979 24.7965 4.36552 24.6893 4.39176 24.5884C4.41801 24.4874 4.4827 24.4008 4.572 24.3469L5.36282 23.8948L4.572 23.4427C4.4827 23.3888 4.41801 23.3021 4.39176 23.2012C4.36552 23.1003 4.37979 22.9931 4.43153 22.9025C4.48327 22.812 4.56838 22.7452 4.66867 22.7166C4.76895 22.688 4.87646 22.6997 4.96821 22.7493L5.76861 23.2062V22.2972C5.76861 22.1912 5.81069 22.0896 5.88559 22.0147C5.96049 21.9398 6.06208 21.8978 6.16801 21.8978ZM10.5614 25.093C10.6674 25.093 10.769 25.1351 10.8439 25.21C10.9188 25.2849 10.9608 25.3865 10.9608 25.4924V26.403L11.7612 25.9445C11.853 25.8949 11.9605 25.8832 12.0608 25.9118C12.1611 25.9405 12.2462 26.0072 12.2979 26.0977C12.3497 26.1883 12.3639 26.2955 12.3377 26.3964C12.3114 26.4973 12.2468 26.584 12.1575 26.6379L11.3666 27.09L12.1575 27.5421C12.2468 27.596 12.3114 27.6827 12.3377 27.7836C12.3639 27.8845 12.3497 27.9917 12.2979 28.0823C12.2462 28.1728 12.1611 28.2395 12.0608 28.2682C11.9605 28.2968 11.853 28.2851 11.7612 28.2355L10.9608 27.7786V28.6876C10.9608 28.7935 10.9188 28.8951 10.8439 28.97C10.769 29.0449 10.6674 29.087 10.5614 29.087C10.4555 29.087 10.3539 29.0449 10.279 28.97C10.2041 28.8951 10.162 28.7935 10.162 28.6876V27.777L9.36163 28.2355C9.26988 28.2851 9.16238 28.2968 9.06209 28.2682C8.96181 28.2395 8.8767 28.1728 8.82496 28.0823C8.77321 27.9917 8.75894 27.8845 8.78519 27.7836C8.81144 27.6827 8.87613 27.596 8.96543 27.5421L9.75624 27.09L8.96543 26.6379C8.87613 26.584 8.81144 26.4973 8.78519 26.3964C8.75894 26.2955 8.77321 26.1883 8.82496 26.0977C8.8767 26.0072 8.96181 25.9405 9.06209 25.9118C9.16238 25.8832 9.26988 25.8949 9.36163 25.9445L10.162 26.4014V25.4924C10.162 25.3865 10.2041 25.2849 10.279 25.21C10.3539 25.1351 10.4555 25.093 10.5614 25.093ZM19.3483 25.093C19.4542 25.093 19.5558 25.1351 19.6307 25.21C19.7056 25.2849 19.7477 25.3865 19.7477 25.4924V26.403L20.5481 25.9445C20.6398 25.8949 20.7473 25.8832 20.8476 25.9118C20.9479 25.9405 21.033 26.0072 21.0848 26.0977C21.1365 26.1883 21.1508 26.2955 21.1245 26.3964C21.0983 26.4973 21.0336 26.584 20.9443 26.6379L20.1535 27.09L20.9443 27.5421C21.0336 27.596 21.0983 27.6827 21.1245 27.7836C21.1508 27.8845 21.1365 27.9917 21.0848 28.0823C21.033 28.1728 20.9479 28.2395 20.8476 28.2682C20.7473 28.2968 20.6398 28.2851 20.5481 28.2355L19.7477 27.7786V28.6876C19.7477 28.7935 19.7056 28.8951 19.6307 28.97C19.5558 29.0449 19.4542 29.087 19.3483 29.087C19.2424 29.087 19.1408 29.0449 19.0659 28.97C18.991 28.8951 18.9489 28.7935 18.9489 28.6876V27.777L18.1485 28.2355C18.0567 28.2851 17.9492 28.2968 17.8489 28.2682C17.7487 28.2395 17.6636 28.1728 17.6118 28.0823C17.5601 27.9917 17.5458 27.8845 17.572 27.7836C17.5983 27.6827 17.663 27.596 17.7523 27.5421L18.5431 27.09L17.7523 26.6379C17.663 26.584 17.5983 26.4973 17.572 26.3964C17.5458 26.2955 17.5601 26.1883 17.6118 26.0977C17.6636 26.0072 17.7487 25.9405 17.8489 25.9118C17.9492 25.8832 18.0567 25.8949 18.1485 25.9445L18.9489 26.4014V25.4924C18.9489 25.3865 18.991 25.2849 19.0659 25.21C19.1408 25.1351 19.2424 25.093 19.3483 25.093ZM14.9549 21.8978C15.0608 21.8978 15.1624 21.9398 15.2373 22.0147C15.3122 22.0896 15.3543 22.1912 15.3543 22.2972V23.2078L16.1547 22.7493C16.2464 22.6997 16.3539 22.688 16.4542 22.7166C16.5545 22.7452 16.6396 22.812 16.6913 22.9025C16.7431 22.9931 16.7574 23.1003 16.7311 23.2012C16.7049 23.3021 16.6402 23.3888 16.5509 23.4427L15.7601 23.8948L16.5509 24.3469C16.6402 24.4008 16.7049 24.4874 16.7311 24.5884C16.7574 24.6893 16.7431 24.7965 16.6913 24.8871C16.6396 24.9776 16.5545 25.0443 16.4542 25.073C16.3539 25.1016 16.2464 25.0898 16.1547 25.0403L15.3543 24.5833V25.4924C15.3543 25.5983 15.3122 25.6999 15.2373 25.7748C15.1624 25.8497 15.0608 25.8918 14.9549 25.8918C14.8489 25.8918 14.7473 25.8497 14.6724 25.7748C14.5975 25.6999 14.5555 25.5983 14.5555 25.4924V24.5818L13.7551 25.0403C13.6633 25.0898 13.5558 25.1016 13.4555 25.073C13.3552 25.0443 13.2701 24.9776 13.2184 24.8871C13.1666 24.7965 13.1524 24.6893 13.1786 24.5884C13.2049 24.4874 13.2696 24.4008 13.3589 24.3469L14.1497 23.8948L13.3589 23.4427C13.2696 23.3888 13.2049 23.3021 13.1786 23.2012C13.1524 23.1003 13.1666 22.9931 13.2184 22.9025C13.2701 22.812 13.3552 22.7452 13.4555 22.7166C13.5558 22.688 13.6633 22.6997 13.7551 22.7493L14.5555 23.2062V22.2972C14.5555 22.1912 14.5975 22.0896 14.6724 22.0147C14.7473 21.9398 14.8489 21.8978 14.9549 21.8978ZM23.7417 21.8978C23.8476 21.8978 23.9492 21.9398 24.0241 22.0147C24.099 22.0896 24.1411 22.1912 24.1411 22.2972V23.2078L24.9415 22.7493C25.0333 22.6997 25.1408 22.688 25.2411 22.7166C25.3413 22.7452 25.4265 22.812 25.4782 22.9025C25.5299 22.9931 25.5442 23.1003 25.518 23.2012C25.4917 23.3021 25.427 23.3888 25.3377 23.4427L24.5469 23.8948L25.3377 24.3469C25.427 24.4008 25.4917 24.4874 25.518 24.5884C25.5442 24.6893 25.5299 24.7965 25.4782 24.8871C25.4265 24.9776 25.3413 25.0443 25.2411 25.073C25.1408 25.1016 25.0333 25.0898 24.9415 25.0403L24.1411 24.5833V25.4924C24.1411 25.5983 24.099 25.6999 24.0241 25.7748C23.9492 25.8497 23.8476 25.8918 23.7417 25.8918C23.6358 25.8918 23.5342 25.8497 23.4593 25.7748C23.3844 25.6999 23.3423 25.5983 23.3423 25.4924V24.5818L22.5419 25.0403C22.4502 25.0898 22.3427 25.1016 22.2424 25.073C22.1421 25.0443 22.057 24.9776 22.0052 24.8871C21.9535 24.7965 21.9392 24.6893 21.9655 24.5884C21.9917 24.4874 22.0564 24.4008 22.1457 24.3469L22.9365 23.8948L22.1457 23.4427C22.0564 23.3888 21.9917 23.3021 21.9655 23.2012C21.9392 23.1003 21.9535 22.9931 22.0052 22.9025C22.057 22.812 22.1421 22.7452 22.2424 22.7166C22.3427 22.688 22.4502 22.6997 22.5419 22.7493L23.3423 23.2062V22.2972C23.3423 22.1912 23.3844 22.0896 23.4593 22.0147C23.5342 21.9398 23.6358 21.8978 23.7417 21.8978Z" fill="#333333"/>
<path d="M15 0C20.28 0 23.2779 3.37012 23.7129 7.43825H23.8457C27.2443 7.43825 30 10.0868 30 13.3542C30 16.6215 27.2443 19.2701 23.8457 19.2701H6.15429C2.75572 19.2701 0 16.6215 0 13.3542C0 10.2067 2.55429 7.63523 5.77929 7.44896L6.28714 7.43825C6.72429 3.34229 9.71786 0 15 0ZM15 2.14112C11.4643 2.14112 8.385 4.86034 8.385 8.61801C8.385 9.21324 7.84071 9.68 7.21714 9.68H6.03857C3.88714 9.68 2.14286 11.3479 2.14286 13.4055C2.14286 15.4589 3.88714 17.129 6.03857 17.129H23.9614C26.1129 17.129 27.8571 15.461 27.8571 13.4034C27.8571 11.3479 26.1129 9.68 23.9614 9.68H22.7829C22.1593 9.68 21.615 9.21324 21.615 8.61801C21.615 4.81324 18.5336 2.14112 15 2.14112Z" fill="#333333"/>
</svg>
