<svg width="30" height="30" viewBox="0 0 30 30" fill="none" xmlns="http://www.w3.org/2000/svg">
<path d="M15 0C15.2486 0 15.4871 0.0987719 15.6629 0.274587C15.8387 0.450403 15.9375 0.68886 15.9375 0.9375V2.8075C15.9375 3.05614 15.8387 3.2946 15.6629 3.47041C15.4871 3.64623 15.2486 3.745 15 3.745C14.7514 3.745 14.5129 3.64623 14.3371 3.47041C14.1613 3.2946 14.0625 3.05614 14.0625 2.8075V0.9375C14.0625 0.68886 14.1613 0.450403 14.3371 0.274587C14.5129 0.0987719 14.7514 0 15 0V0ZM15 22.5C15.9849 22.5 16.9602 22.306 17.8701 21.9291C18.7801 21.5522 19.6069 20.9997 20.3033 20.3033C20.9997 19.6069 21.5522 18.7801 21.9291 17.8701C22.306 16.9602 22.5 15.9849 22.5 15C22.5 14.0151 22.306 13.0398 21.9291 12.1299C21.5522 11.2199 20.9997 10.3931 20.3033 9.6967C19.6069 9.00026 18.7801 8.44782 17.8701 8.0709C16.9602 7.69399 15.9849 7.5 15 7.5C13.0109 7.5 11.1032 8.29018 9.6967 9.6967C8.29018 11.1032 7.5 13.0109 7.5 15C7.5 16.9891 8.29018 18.8968 9.6967 20.3033C11.1032 21.7098 13.0109 22.5 15 22.5V22.5ZM15 20.625C14.2613 20.6251 13.5298 20.4797 12.8474 20.1971C12.1649 19.9145 11.5447 19.5002 11.0223 18.9779C9.96733 17.9231 9.37454 16.4925 9.37438 15.0006C9.37421 13.5088 9.96668 12.078 11.0215 11.023C12.0762 9.96796 13.5069 9.37517 14.9987 9.375C16.4906 9.375 17.9213 9.96763 18.9762 11.0225C20.0311 12.0774 20.6238 13.5082 20.6238 15C20.6238 16.4918 20.0311 17.9226 18.9762 18.9775C17.9213 20.0324 16.4906 20.625 14.9987 20.625H15ZM29.0625 15.9375C29.3111 15.9375 29.5496 15.8387 29.7254 15.6629C29.9012 15.4871 30 15.2486 30 15C30 14.7514 29.9012 14.5129 29.7254 14.3371C29.5496 14.1613 29.3111 14.0625 29.0625 14.0625H27.1913C26.9426 14.0625 26.7042 14.1613 26.5283 14.3371C26.3525 14.5129 26.2538 14.7514 26.2538 15C26.2538 15.2486 26.3525 15.4871 26.5283 15.6629C26.7042 15.8387 26.9426 15.9375 27.1913 15.9375H29.0613H29.0625ZM15 26.255C15.2486 26.255 15.4871 26.3538 15.6629 26.5296C15.8387 26.7054 15.9375 26.9439 15.9375 27.1925V29.0625C15.9375 29.3111 15.8387 29.5496 15.6629 29.7254C15.4871 29.9012 15.2486 30 15 30C14.7514 30 14.5129 29.9012 14.3371 29.7254C14.1613 29.5496 14.0625 29.3111 14.0625 29.0625V27.1925C14.0625 26.9439 14.1613 26.7054 14.3371 26.5296C14.5129 26.3538 14.7514 26.255 15 26.255V26.255ZM2.8125 15.9375C3.06114 15.9375 3.2996 15.8387 3.47541 15.6629C3.65123 15.4871 3.75 15.2486 3.75 15C3.75 14.7514 3.65123 14.5129 3.47541 14.3371C3.2996 14.1613 3.06114 14.0625 2.8125 14.0625H0.9375C0.68886 14.0625 0.450403 14.1613 0.274587 14.3371C0.0987719 14.5129 0 14.7514 0 15C0 15.2486 0.0987719 15.4871 0.274587 15.6629C0.450403 15.8387 0.68886 15.9375 0.9375 15.9375H2.8125ZM4.02375 4.02375C4.19953 3.84819 4.43781 3.74958 4.68625 3.74958C4.93469 3.74958 5.17297 3.84819 5.34875 4.02375L7.22375 5.89875C7.38935 6.07647 7.4795 6.31153 7.47522 6.5544C7.47093 6.79728 7.37254 7.02901 7.20078 7.20078C7.02901 7.37254 6.79728 7.47093 6.5544 7.47522C6.31153 7.4795 6.07647 7.38935 5.89875 7.22375L4.02375 5.34875C3.84819 5.17297 3.74958 4.93469 3.74958 4.68625C3.74958 4.43781 3.84819 4.19953 4.02375 4.02375V4.02375ZM5.34875 25.9738C5.17103 26.1394 4.93597 26.2295 4.6931 26.2252C4.45022 26.2209 4.21849 26.1225 4.04672 25.9508C3.87496 25.779 3.77657 25.5473 3.77228 25.3044C3.768 25.0615 3.85815 24.8265 4.02375 24.6488L5.89875 22.7738C6.07647 22.6082 6.31153 22.518 6.5544 22.5223C6.79728 22.5266 7.02901 22.625 7.20078 22.7967C7.37254 22.9685 7.47093 23.2002 7.47522 23.4431C7.4795 23.686 7.38935 23.921 7.22375 24.0988L5.34875 25.9738ZM25.9737 4.02375C25.798 3.84819 25.5597 3.74958 25.3113 3.74958C25.0628 3.74958 24.8245 3.84819 24.6487 4.02375L22.7737 5.89875C22.6081 6.07647 22.518 6.31153 22.5223 6.5544C22.5266 6.79728 22.625 7.02901 22.7967 7.20078C22.9685 7.37254 23.2002 7.47093 23.4431 7.47522C23.686 7.4795 23.921 7.38935 24.0987 7.22375L25.9737 5.34875C26.1493 5.17297 26.2479 4.93469 26.2479 4.68625C26.2479 4.43781 26.1493 4.19953 25.9737 4.02375V4.02375ZM24.65 25.975C24.7358 26.0671 24.8393 26.141 24.9543 26.1922C25.0693 26.2435 25.1935 26.271 25.3193 26.2732C25.4452 26.2755 25.5703 26.2523 25.687 26.2052C25.8037 26.158 25.9098 26.0878 25.9988 25.9988C26.0878 25.9098 26.158 25.8037 26.2052 25.687C26.2523 25.5703 26.2755 25.4452 26.2732 25.3193C26.271 25.1935 26.2435 25.0693 26.1922 24.9543C26.141 24.8393 26.0671 24.7358 25.975 24.65L24.1 22.775C24.0142 22.6829 23.9107 22.609 23.7957 22.5578C23.6807 22.5065 23.5565 22.479 23.4307 22.4768C23.3048 22.4745 23.1797 22.4977 23.063 22.5448C22.9463 22.592 22.8402 22.6622 22.7512 22.7512C22.6622 22.8402 22.592 22.9463 22.5448 23.063C22.4977 23.1797 22.4745 23.3048 22.4768 23.4307C22.479 23.5565 22.5065 23.6807 22.5578 23.7957C22.609 23.9107 22.6829 24.0142 22.775 24.1L24.65 25.975Z" fill="#333333"/>
</svg>
