<svg width="30" height="29" viewBox="0 0 30 29" fill="none" xmlns="http://www.w3.org/2000/svg">
<path d="M13.3648 20.9422L16.6779 17.1921C16.8339 17.016 17.0504 16.9049 17.2845 16.881C17.5185 16.8571 17.753 16.922 17.9414 17.063C18.1298 17.2039 18.2583 17.4105 18.3014 17.6418C18.3446 17.8731 18.2992 18.1121 18.1742 18.3115L18.073 18.4465L16.1661 20.6309H19.6874C19.8509 20.6307 20.0117 20.6733 20.1537 20.7545C20.2957 20.8357 20.414 20.9526 20.4968 21.0936C20.5797 21.2346 20.6242 21.3949 20.6259 21.5584C20.6276 21.722 20.5866 21.8832 20.5067 22.0259L20.4205 22.1516L15.8361 27.7823C15.6894 27.9623 15.4811 28.0816 15.2516 28.1169C15.0221 28.1522 14.7876 28.101 14.5937 27.9733C14.3997 27.8456 14.26 27.6505 14.2017 27.4257C14.1433 27.2009 14.1705 26.9625 14.2779 26.7566L14.3717 26.6141L17.7411 22.5059H14.0623C13.8942 22.5062 13.7292 22.4614 13.5844 22.376C13.4396 22.2906 13.3205 22.1679 13.2394 22.0207C13.1583 21.8735 13.1183 21.7072 13.1235 21.5392C13.1288 21.3713 13.1791 21.2078 13.2691 21.0659L13.3648 20.9422L16.6779 17.1921L13.3648 20.9422V20.9422ZM16.8748 5.62508C21.4968 5.62508 24.118 8.57637 24.4987 12.1389H24.6149C27.5887 12.1389 30 14.4583 30 17.3196C30 20.1809 27.5887 22.5003 24.6149 22.5003H22.2599C22.4153 22.2129 22.4983 21.8919 22.5016 21.5651C22.5048 21.2384 22.4283 20.9158 22.2786 20.6253H24.7162C26.5987 20.6253 28.125 19.1646 28.125 17.3627C28.125 15.5627 26.5987 14.1021 24.7162 14.1021H23.6849C23.1412 14.1021 22.663 13.6933 22.663 13.1721C22.663 9.84014 19.9686 7.5001 16.8748 7.5001C13.781 7.5001 11.0866 9.88139 11.0866 13.1721C11.0866 13.6933 10.6104 14.1021 10.0647 14.1021H9.03346C7.15093 14.1021 5.62466 15.5627 5.62466 17.3646C5.62466 19.1628 7.15093 20.6253 9.03346 20.6253H11.471C11.3213 20.9158 11.2448 21.2384 11.2481 21.5651C11.2514 21.8919 11.3343 22.2129 11.4897 22.5003H9.13471C6.16092 22.5003 3.74964 20.1809 3.74964 17.3196C3.74964 14.4583 6.16092 12.1389 9.13471 12.1389H9.25096C9.63534 8.55199 12.2529 5.62508 16.8748 5.62508ZM11.9848 6.53551e-08C14.7148 6.53551e-08 17.0961 1.55252 18.2717 3.83443C17.4729 3.73537 16.6659 3.72155 15.8642 3.79318C15.401 3.19705 14.808 2.71443 14.1302 2.38204C13.4524 2.04965 12.7078 1.87624 11.9529 1.87503C9.52284 1.87503 7.45281 3.6488 7.04031 6.04696L6.97093 6.44071C6.89576 6.87647 6.669 7.27164 6.3307 7.55641C5.99241 7.84119 5.56435 7.99723 5.12216 7.99699H4.6384C3.11213 7.99699 1.87461 9.2495 1.87461 10.7945C1.87461 11.8633 2.46525 12.7914 3.33338 13.2621C2.93213 13.7721 2.60212 14.3421 2.35837 14.9533C1.46512 14.4091 0.768731 13.5942 0.37042 12.627C-0.0278916 11.6599 -0.107358 10.5909 0.143571 9.57544C0.3945 8.56002 0.962746 7.65108 1.7657 6.98077C2.56866 6.31046 3.56448 5.91372 4.6084 5.84821L5.02278 5.83883C5.31191 4.20255 6.16822 2.72042 7.44137 1.65266C8.71452 0.584906 10.3231 -0.000225783 11.9848 6.53551e-08V6.53551e-08Z" fill="#333333"/>
</svg>
