<svg width="28" height="23" viewBox="0 0 28 23" fill="none" xmlns="http://www.w3.org/2000/svg">
<path d="M6.609 1.952C8.10822 0.698378 10.0204 0.00601966 12 0C16.035 0 19.3845 2.90909 19.749 6.66036C22.137 6.98764 24 8.92655 24 11.3062C24 13.9185 21.753 16 19.0305 16H5.6715C2.562 16 0 13.6233 0 10.6444C0 8.08 1.899 5.95636 4.413 5.41818C4.6275 4.16291 5.46 2.912 6.609 1.952V1.952Z" fill="#CBCBCB"/>
<path d="M10.609 3.952C12.1082 2.69838 14.0204 2.00602 16 2C20.035 2 23.3845 4.90909 23.749 8.66036C26.137 8.98764 28 10.9265 28 13.3062C28 15.9185 25.753 18 23.0305 18H9.6715C6.562 18 4 15.6233 4 12.6444C4 10.08 5.899 7.95636 8.413 7.41818C8.6275 6.16291 9.46 4.912 10.609 3.952V3.952Z" fill="#DDDDDD"/>
<path d="M18.3643 12.0471C18.4355 12.0861 18.4905 12.1467 18.5205 12.2191C18.5505 12.2916 18.5536 12.3715 18.5294 12.4458L17.2196 16.4688H19.6362C19.7073 16.4688 19.7767 16.4884 19.8361 16.5253C19.8954 16.5621 19.9421 16.6146 19.9702 16.6763C19.9984 16.7379 20.0068 16.806 19.9945 16.8721C19.9822 16.9382 19.9497 16.9995 19.9009 17.0483L14.083 22.8917C14.0267 22.9483 13.9518 22.9852 13.8705 22.9964C13.7891 23.0076 13.7062 22.9924 13.6352 22.9534C13.5642 22.9143 13.5092 22.8536 13.4794 22.7813C13.4495 22.7089 13.4464 22.6291 13.4706 22.5549L14.7804 18.5312H12.3638C12.2927 18.5312 12.2233 18.5116 12.1639 18.4747C12.1046 18.4378 12.0579 18.3853 12.0298 18.3237C12.0016 18.2621 11.9932 18.194 12.0055 18.1279C12.0178 18.0618 12.0503 18.0005 12.0991 17.9517L17.917 12.1082C17.9732 12.0517 18.048 12.0149 18.1292 12.0036C18.2104 11.9924 18.2933 12.0075 18.3643 12.0464V12.0471Z" fill="#FFCC00"/>
</svg>
