<svg width="28" height="22" viewBox="0 0 28 22" fill="none" xmlns="http://www.w3.org/2000/svg">
<path d="M1 8C0.734784 8 0.48043 7.89464 0.292893 7.70711C0.105357 7.51957 0 7.26522 0 7C0 6.73478 0.105357 6.48043 0.292893 6.29289C0.48043 6.10536 0.734784 6 1 6H13C13.3651 5.99973 13.7231 5.89952 14.0354 5.71025C14.3476 5.52097 14.602 5.24985 14.7711 4.92627C14.9402 4.60269 15.0175 4.239 14.9946 3.87462C14.9717 3.51025 14.8495 3.15909 14.6412 2.85921C14.433 2.55933 14.1466 2.32218 13.8132 2.17346C13.4798 2.02474 13.112 1.97012 12.7497 2.01553C12.3875 2.06095 12.0446 2.20465 11.7581 2.43108C11.4717 2.6575 11.2528 2.958 11.125 3.3C11.0852 3.42992 11.0193 3.55036 10.9314 3.65398C10.8435 3.7576 10.7354 3.84221 10.6137 3.90266C10.492 3.96311 10.3593 3.99813 10.2236 4.00557C10.088 4.01301 9.95219 3.99272 9.82461 3.94595C9.69704 3.89917 9.58033 3.82688 9.48163 3.7335C9.38292 3.64012 9.30428 3.5276 9.25051 3.40281C9.19673 3.27803 9.16895 3.14359 9.16887 3.00771C9.16878 2.87183 9.19639 2.73736 9.25 2.6125C9.50355 1.92693 9.94011 1.32395 10.5123 0.869039C11.0844 0.414132 11.7703 0.124698 12.4953 0.0321752C13.2204 -0.0603473 13.957 0.0475793 14.625 0.344232C15.2931 0.640885 15.8671 1.11492 16.2846 1.71485C16.7022 2.31478 16.9474 3.01766 16.9936 3.74716C17.0399 4.47665 16.8853 5.20485 16.5467 5.85267C16.2082 6.5005 15.6986 7.04317 15.0733 7.42173C14.448 7.8003 13.731 8.0003 13 8H1ZM17 14H3C2.73478 14 2.48043 14.1054 2.29289 14.2929C2.10536 14.4804 2 14.7348 2 15C2 15.2652 2.10536 15.5196 2.29289 15.7071C2.48043 15.8946 2.73478 16 3 16H17C17.3651 16.0003 17.7231 16.1005 18.0354 16.2898C18.3476 16.479 18.602 16.7501 18.7711 17.0737C18.9402 17.3973 19.0175 17.761 18.9946 18.1254C18.9717 18.4898 18.8495 18.8409 18.6412 19.1408C18.433 19.4407 18.1466 19.6778 17.8132 19.8265C17.4798 19.9753 17.112 20.0299 16.7497 19.9845C16.3875 19.9391 16.0446 19.7953 15.7581 19.5689C15.4717 19.3425 15.2528 19.042 15.125 18.7C15.0852 18.5701 15.0193 18.4496 14.9314 18.346C14.8435 18.2424 14.7354 18.1578 14.6137 18.0973C14.492 18.0369 14.3593 18.0019 14.2236 17.9944C14.088 17.987 13.9522 18.0073 13.8246 18.0541C13.697 18.1008 13.5803 18.1731 13.4816 18.2665C13.3829 18.3599 13.3043 18.4724 13.2505 18.5972C13.1967 18.722 13.169 18.8564 13.1689 18.9923C13.1688 19.1282 13.1964 19.2626 13.25 19.3875C13.5035 20.0731 13.9401 20.6761 14.5123 21.131C15.0844 21.5859 15.7703 21.8753 16.4953 21.9678C17.2204 22.0603 17.957 21.9524 18.625 21.6558C19.2931 21.3591 19.8671 20.8851 20.2846 20.2851C20.7022 19.6852 20.9474 18.9823 20.9936 18.2528C21.0399 17.5234 20.8853 16.7951 20.5467 16.1473C20.2082 15.4995 19.6986 14.9568 19.0733 14.5783C18.448 14.1997 17.731 13.9997 17 14V14ZM24 4C23.1833 4.00211 22.3868 4.25335 21.7167 4.72017C21.0466 5.18699 20.5349 5.84716 20.25 6.6125C20.1964 6.73736 20.1688 6.87183 20.1689 7.00771C20.169 7.14359 20.1967 7.27802 20.2505 7.40281C20.3043 7.5276 20.3829 7.64012 20.4816 7.7335C20.5803 7.82688 20.697 7.89917 20.8246 7.94594C20.9522 7.99272 21.088 8.01301 21.2236 8.00557C21.3593 7.99813 21.492 7.96311 21.6137 7.90266C21.7354 7.84221 21.8435 7.7576 21.9314 7.65398C22.0193 7.55036 22.0852 7.42992 22.125 7.3C22.2528 6.958 22.4717 6.6575 22.7581 6.43107C23.0446 6.20465 23.3875 6.06095 23.7497 6.01553C24.112 5.97012 24.4798 6.02474 24.8132 6.17346C25.1466 6.32218 25.433 6.55933 25.6412 6.85921C25.8495 7.15909 25.9717 7.51025 25.9946 7.87462C26.0175 8.239 25.9402 8.60269 25.7711 8.92627C25.602 9.24985 25.3476 9.52097 25.0354 9.71025C24.7231 9.89952 24.3651 9.99973 24 10H2C1.73478 10 1.48043 10.1054 1.29289 10.2929C1.10536 10.4804 1 10.7348 1 11C1 11.2652 1.10536 11.5196 1.29289 11.7071C1.48043 11.8946 1.73478 12 2 12H24C25.0609 12 26.0783 11.5786 26.8284 10.8284C27.5786 10.0783 28 9.06087 28 8C28 6.93913 27.5786 5.92172 26.8284 5.17157C26.0783 4.42143 25.0609 4 24 4V4Z" fill="#BDBDBD"/>
</svg>
