<svg width="27" height="21" viewBox="0 0 27 21" fill="none" xmlns="http://www.w3.org/2000/svg">
<path d="M0.964286 7.63636C0.708541 7.63636 0.463271 7.5358 0.282433 7.35678C0.101594 7.17777 0 6.93498 0 6.68182C0 6.42866 0.101594 6.18587 0.282433 6.00685C0.463271 5.82784 0.708541 5.72727 0.964286 5.72727H12.5357C12.8878 5.72701 13.233 5.63136 13.5341 5.45069C13.8351 5.27002 14.0805 5.01122 14.2435 4.70235C14.4066 4.39348 14.4811 4.04632 14.459 3.69851C14.437 3.35069 14.3191 3.01549 14.1183 2.72925C13.9175 2.443 13.6414 2.21662 13.3199 2.07466C12.9983 1.9327 12.6437 1.88057 12.2944 1.92392C11.9451 1.96727 11.6144 2.10444 11.3382 2.32057C11.062 2.5367 10.8509 2.82354 10.7277 3.15C10.6893 3.27401 10.6258 3.38898 10.541 3.48789C10.4563 3.5868 10.352 3.66757 10.2347 3.72527C10.1173 3.78297 9.98933 3.81639 9.8585 3.8235C9.72767 3.8306 9.59675 3.81124 9.47373 3.76658C9.35071 3.72193 9.23818 3.65293 9.143 3.5638C9.04782 3.47466 8.97198 3.36725 8.92013 3.24814C8.86828 3.12902 8.84149 3.0007 8.84141 2.87099C8.84132 2.74129 8.86794 2.61293 8.91964 2.49375C9.16414 1.83934 9.5851 1.26377 10.1368 0.829537C10.6885 0.395307 11.3499 0.11903 12.0491 0.0307127C12.7483 -0.0576042 13.4585 0.0454166 14.1027 0.328585C14.7469 0.611754 15.3004 1.06424 15.7031 1.6369C16.1057 2.20956 16.3422 2.8805 16.3867 3.57683C16.4313 4.27316 16.2822 4.96827 15.9558 5.58664C15.6293 6.20502 15.1379 6.72302 14.535 7.08438C13.932 7.44575 13.2406 7.63665 12.5357 7.63636H0.964286ZM16.3929 13.3636H2.89286C2.63711 13.3636 2.39184 13.4642 2.211 13.6432C2.03017 13.8222 1.92857 14.065 1.92857 14.3182C1.92857 14.5713 2.03017 14.8141 2.211 14.9931C2.39184 15.1722 2.63711 15.2727 2.89286 15.2727H16.3929C16.7449 15.273 17.0902 15.3686 17.3912 15.5493C17.6923 15.73 17.9376 15.9888 18.1007 16.2976C18.2637 16.6065 18.3383 16.9537 18.3162 17.3015C18.2941 17.6493 18.1763 17.9845 17.9755 18.2708C17.7747 18.557 17.4985 18.7834 17.177 18.9253C16.8555 19.0673 16.5008 19.1194 16.1515 19.0761C15.8022 19.0327 15.4715 18.8956 15.1954 18.6794C14.9192 18.4633 14.708 18.1765 14.5848 17.85C14.5464 17.726 14.4829 17.611 14.3982 17.5121C14.3134 17.4132 14.2092 17.3324 14.0918 17.2747C13.9745 17.217 13.8465 17.1836 13.7156 17.1765C13.5848 17.1694 13.4539 17.1888 13.3309 17.2334C13.2079 17.2781 13.0953 17.3471 13.0001 17.4362C12.905 17.5253 12.8291 17.6327 12.7773 17.7519C12.7254 17.871 12.6986 17.9993 12.6986 18.129C12.6985 18.2587 12.7251 18.3871 12.7768 18.5062C13.0213 19.1607 13.4422 19.7362 13.994 20.1705C14.5457 20.6047 15.207 20.881 15.9062 20.9693C16.6054 21.0576 17.3157 20.9546 17.9598 20.6714C18.604 20.3882 19.1575 19.9358 19.5602 19.3631C19.9629 18.7904 20.1993 18.1195 20.2439 17.4232C20.2884 16.7268 20.1394 16.0317 19.8129 15.4134C19.4865 14.795 18.9951 14.277 18.3921 13.9156C17.7892 13.5543 17.0977 13.3633 16.3929 13.3636ZM23.1429 3.81818C22.3554 3.82019 21.5872 4.06002 20.9411 4.50562C20.295 4.95122 19.8015 5.58138 19.5268 6.31193C19.4751 6.43111 19.4485 6.55947 19.4486 6.68918C19.4486 6.81888 19.4754 6.9472 19.5273 7.06632C19.5791 7.18543 19.655 7.29284 19.7501 7.38198C19.8453 7.47111 19.9579 7.54011 20.0809 7.58477C20.2039 7.62942 20.3348 7.64878 20.4656 7.64168C20.5965 7.63457 20.7245 7.60115 20.8418 7.54345C20.9592 7.48575 21.0634 7.40498 21.1482 7.30607C21.2329 7.20717 21.2964 7.0922 21.3348 6.96818C21.458 6.64173 21.6692 6.35488 21.9454 6.13875C22.2215 5.92262 22.5522 5.78545 22.9015 5.7421C23.2508 5.69875 23.6055 5.75088 23.927 5.89284C24.2485 6.03481 24.5247 6.26118 24.7255 6.54743C24.9263 6.83367 25.0441 7.16887 25.0662 7.51669C25.0883 7.8645 25.0137 8.21166 24.8507 8.52053C24.6876 8.8294 24.4423 9.0882 24.1412 9.26887C23.8402 9.44954 23.4949 9.54519 23.1429 9.54545H1.92857C1.67283 9.54545 1.42756 9.64602 1.24672 9.82503C1.06588 10.004 0.964286 10.2468 0.964286 10.5C0.964286 10.7532 1.06588 10.996 1.24672 11.175C1.42756 11.354 1.67283 11.4545 1.92857 11.4545H23.1429C24.1658 11.4545 25.1469 11.0523 25.8703 10.3362C26.5936 9.62018 27 8.64901 27 7.63636C27 6.62372 26.5936 5.65255 25.8703 4.9365C25.1469 4.22045 24.1658 3.81818 23.1429 3.81818Z" fill="#BDBDBD"/>
</svg>
