<svg width="26" height="20" viewBox="0 0 26 20" fill="none" xmlns="http://www.w3.org/2000/svg">
<path d="M0.928571 7.27273C0.682299 7.27273 0.446113 7.17695 0.271972 7.00646C0.0978313 6.83597 0 6.60474 0 6.36364C0 6.12253 0.0978313 5.8913 0.271972 5.72081C0.446113 5.55033 0.682299 5.45455 0.928571 5.45455H12.0714C12.4104 5.4543 12.7429 5.3632 13.0328 5.19113C13.3227 5.01907 13.559 4.77259 13.716 4.47843C13.873 4.18427 13.9448 3.85364 13.9235 3.52239C13.9023 3.19113 13.7888 2.8719 13.5954 2.59928C13.4021 2.32667 13.1362 2.11107 12.8265 1.97587C12.5169 1.84067 12.1754 1.79102 11.839 1.8323C11.5027 1.87359 11.1842 2.00423 10.9183 2.21007C10.6523 2.41591 10.449 2.68909 10.3304 3C10.2934 3.11811 10.2322 3.2276 10.1506 3.3218C10.069 3.416 9.96861 3.49292 9.85561 3.54788C9.74261 3.60283 9.61936 3.63466 9.49337 3.64143C9.36739 3.64819 9.24132 3.62975 9.12285 3.58722C9.00439 3.5447 8.89602 3.47898 8.80437 3.39409C8.71271 3.3092 8.63969 3.20691 8.58975 3.09347C8.53982 2.98002 8.51403 2.85781 8.51395 2.73428C8.51387 2.61075 8.5395 2.48851 8.58929 2.375C8.82472 1.75176 9.2301 1.20359 9.76138 0.790035C10.2927 0.376483 10.9295 0.113361 11.6028 0.0292502C12.2761 -0.0548611 12.96 0.043254 13.5804 0.312938C14.2007 0.582623 14.7337 1.01357 15.1215 1.55896C15.5092 2.10435 15.7369 2.74333 15.7798 3.40651C15.8227 4.06968 15.6792 4.73168 15.3648 5.32061C15.0504 5.90954 14.5772 6.40288 13.9966 6.74703C13.416 7.09119 12.7502 7.273 12.0714 7.27273H0.928571ZM15.7857 12.7273H2.78571C2.53944 12.7273 2.30326 12.8231 2.12912 12.9935C1.95497 13.164 1.85714 13.3953 1.85714 13.6364C1.85714 13.8775 1.95497 14.1087 2.12912 14.2792C2.30326 14.4497 2.53944 14.5455 2.78571 14.5455H15.7857C16.1247 14.5457 16.4572 14.6368 16.7471 14.8089C17.037 14.9809 17.2733 15.2274 17.4303 15.5216C17.5873 15.8157 17.6591 16.1464 17.6378 16.4776C17.6166 16.8089 17.5031 17.1281 17.3097 17.4007C17.1163 17.6733 16.8504 17.8889 16.5408 18.0241C16.2312 18.1593 15.8897 18.209 15.5533 18.1677C15.2169 18.1264 14.8985 17.9958 14.6326 17.7899C14.3666 17.5841 14.1633 17.3109 14.0446 17C14.0077 16.8819 13.9465 16.7724 13.8649 16.6782C13.7833 16.584 13.6829 16.5071 13.5699 16.4521C13.4569 16.3972 13.3336 16.3653 13.2077 16.3586C13.0817 16.3518 12.9556 16.3703 12.8371 16.4128C12.7187 16.4553 12.6103 16.521 12.5187 16.6059C12.427 16.6908 12.354 16.7931 12.304 16.9065C12.2541 17.02 12.2283 17.1422 12.2282 17.2657C12.2282 17.3892 12.2538 17.5115 12.3036 17.625C12.539 18.2482 12.9444 18.7964 13.4757 19.21C14.0069 19.6235 14.6438 19.8866 15.3171 19.9708C15.9904 20.0549 16.6743 19.9567 17.2947 19.6871C17.915 19.4174 18.448 18.9864 18.8357 18.441C19.2235 17.8957 19.4512 17.2567 19.4941 16.5935C19.537 15.9303 19.3935 15.2683 19.0791 14.6794C18.7647 14.0905 18.2915 13.5971 17.7109 13.253C17.1303 12.9088 16.4645 12.727 15.7857 12.7273ZM22.2857 3.63636C21.5274 3.63828 20.7877 3.86668 20.1655 4.29107C19.5433 4.71545 19.0682 5.3156 18.8036 6.01136C18.7538 6.12487 18.7282 6.24712 18.7282 6.37064C18.7283 6.49417 18.7541 6.61639 18.804 6.72983C18.854 6.84327 18.927 6.94556 19.0187 7.03045C19.1103 7.11535 19.2187 7.18106 19.3371 7.22359C19.4556 7.26611 19.5817 7.28455 19.7077 7.27779C19.8336 7.27102 19.9569 7.23919 20.0699 7.18424C20.1829 7.12929 20.2833 7.05236 20.3649 6.95816C20.4465 6.86397 20.5077 6.75447 20.5446 6.63636C20.6633 6.32545 20.8666 6.05227 21.1326 5.84643C21.3985 5.64059 21.7169 5.50995 22.0533 5.46867C22.3897 5.42738 22.7312 5.47703 23.0408 5.61223C23.3504 5.74743 23.6163 5.96303 23.8097 6.23564C24.0031 6.50826 24.1166 6.8275 24.1378 7.15875C24.1591 7.49 24.0873 7.82063 23.9303 8.11479C23.7733 8.40895 23.537 8.65543 23.2471 8.8275C22.9572 8.99956 22.6247 9.09066 22.2857 9.09091H1.85714C1.61087 9.09091 1.37468 9.18669 1.20054 9.35718C1.0264 9.52766 0.928571 9.75889 0.928571 10C0.928571 10.2411 1.0264 10.4723 1.20054 10.6428C1.37468 10.8133 1.61087 10.9091 1.85714 10.9091H22.2857C23.2708 10.9091 24.2155 10.526 24.9121 9.84403C25.6087 9.16207 26 8.23715 26 7.27273C26 6.3083 25.6087 5.38338 24.9121 4.70143C24.2155 4.01948 23.2708 3.63636 22.2857 3.63636Z" fill="#BDBDBD"/>
</svg>
